<svg xmlns="http://www.w3.org/2000/svg" xmlns:xlink="http://www.w3.org/1999/xlink" xmlns:lucid="lucid" width="1760" height="1360"><g transform="translate(0 0)" lucid:page-tab-id="HWEp-vi-RSFO"><path d="M0 0h1760v1360H0z" fill="#fff"/><path d="M560 471.5h300v219H560z" stroke="#333" stroke-width="2" fill="#fff"/><path d="M560 509.1h300M560 610.4h300" stroke="#333" stroke-width="2" fill="none"/><use xlink:href="#a" transform="matrix(1,0,0,1,568,479.51263829981826) translate(79.1 14.6)"/><use xlink:href="#b" transform="matrix(1,0,0,1,572,517.1126382998183) translate(0 25)"/><use xlink:href="#c" transform="matrix(1,0,0,1,572,517.1126382998183) translate(15 25)"/><use xlink:href="#d" transform="matrix(1,0,0,1,572,517.1126382998183) translate(63 25)"/><use xlink:href="#e" transform="matrix(1,0,0,1,572,517.1126382998183) translate(0 46.6)"/><use xlink:href="#b" transform="matrix(1,0,0,1,572,517.1126382998183) translate(0 68.2)"/><use xlink:href="#f" transform="matrix(1,0,0,1,572,517.1126382998183) translate(15 68.2)"/><use xlink:href="#g" transform="matrix(1,0,0,1,572,517.1126382998183) translate(138.85000000000002 68.2)"/><use xlink:href="#h" transform="matrix(1,0,0,1,572,618.4126382998182) translate(0 24.799999999999997)"/><use xlink:href="#i" transform="matrix(1,0,0,1,572,618.4126382998182) translate(0 46.4)"/><path d="M60 453.36h300v223H60z" stroke="#333" stroke-width="2" fill="#fff"/><path d="M60 490.96h300" stroke="#333" stroke-width="2" fill="none"/><use xlink:href="#j" transform="matrix(1,0,0,1,68,461.36086973948784) translate(105.55 14.6)"/><use xlink:href="#k" transform="matrix(1,0,0,1,72,498.96086973948786) translate(0 67)"/><use xlink:href="#l" transform="matrix(1,0,0,1,72,498.96086973948786) translate(0 88.60000000000001)"/><use xlink:href="#m" transform="matrix(1,0,0,1,72,498.96086973948786) translate(0 110.20000000000002)"/><path d="M710 470V345.38" stroke="#333" fill="none"/><path d="M710.5 470.5h-1v-.5h1z" fill="#333"/><path d="M710 315.7l14.85 14.86L710 345.7l-14.85-15.14z" stroke="#333" fill="#fff"/><path d="M453.15 75c0-4.42 3.58-8 8-8h836.75c4.4 0 8 3.58 8 8v25.16c0 4.4-3.6 8-8 8H461.15c-4.42 0-8-3.6-8-8z" stroke="#000" stroke-opacity="0" stroke-width="2" fill="#fff" fill-opacity="0"/><use xlink:href="#n" transform="matrix(1,0,0,1,457.1465527853429,70.99999999994924) translate(161.5482716049383 23.657777777777778)"/><use xlink:href="#o" transform="matrix(1,0,0,1,457.1465527853429,70.99999999994924) translate(238.68530864197533 23.657777777777778)"/><use xlink:href="#p" transform="matrix(1,0,0,1,457.1465527853429,70.99999999994924) translate(365.2803703703704 23.657777777777778)"/><use xlink:href="#q" transform="matrix(1,0,0,1,457.1465527853429,70.99999999994924) translate(407.3816049382716 23.657777777777778)"/><use xlink:href="#r" transform="matrix(1,0,0,1,457.1465527853429,70.99999999994924) translate(566.535925925926 23.657777777777778)"/><path d="M729.63 106.8H1039M729.65 106.8h-1.02M1038.96 106.8h1.03" stroke="#a9afb8" stroke-width="2" fill="none"/><path d="M453.15 116.16c0-4.42 3.58-8 8-8h837.7c4.42 0 8 3.58 8 8V119c0 4.42-3.58 8-8 8h-837.7c-4.42 0-8-3.58-8-8z" stroke="#000" stroke-opacity="0" stroke-width="2" fill="#fff" fill-opacity="0"/><use xlink:href="#s" transform="matrix(1,0,0,1,457.1465527853434,112.15522395684805) translate(323.2512037037037 14.917037037037037)"/><use xlink:href="#t" transform="matrix(1,0,0,1,457.1465527853434,112.15522395684805) translate(373.34657407407406 14.917037037037037)"/><use xlink:href="#u" transform="matrix(1,0,0,1,457.1465527853434,112.15522395684805) translate(420.04276748971193 14.917037037037037)"/><use xlink:href="#v" transform="matrix(1,0,0,1,457.1465527853434,112.15522395684805) translate(432.49225308641974 14.917037037037037)"/><use xlink:href="#w" transform="matrix(1,0,0,1,457.1465527853434,112.15522395684805) translate(469.88319958847734 14.917037037037037)"/><use xlink:href="#x" transform="matrix(1,0,0,1,457.1465527853434,112.15522395684805) translate(495.37702674897116 14.917037037037037)"/><path d="M361.9 591.46l5.05-.26m5.04-.27l10.07-.53m5.04-.27l10.1-.54m5.03-.27l10.1-.54m5.03-.28l10.08-.53m5.04-.28l10.08-.53m5.04-.28l10.08-.53m5.04-.28l10.1-.54m5.03-.26l10.08-.54m5.04-.27l10.08-.52m5.04-.27l10.07-.52m5.04-.27l10.1-.52m5.04-.27l10.08-.53m5.04-.26l5.04-.26M378.63 580.38l-16.65 11.08 17.73 9.26" stroke="#333" fill="none"/><path d="M559 581.5l-.5.04-.04-1 .54-.03z" fill="#333"/><use xlink:href="#y" transform="matrix(1,0,0,1,399.17389164993784,565.6093460450326) translate(0 12.444444444444446)"/><path d="M642.83 470.5" stroke="#333" fill="none"/><path fill="#333"/><path d="M641.2 470.5l-14.25 4.65v-9.27z" stroke="#333" fill="#333"/><path d="M560 160h300v154H560z" stroke="#333" stroke-width="2" fill="#fff"/><path d="M560 197.6h300m-300 58.1h300" stroke="#333" stroke-width="2" fill="none"/><use xlink:href="#z" transform="matrix(1,0,0,1,568,168) translate(89.69999999999999 14.6)"/><use xlink:href="#A" transform="matrix(1,0,0,1,572,263.7) translate(0 25.1)"/><use xlink:href="#B" transform="matrix(1,0,0,1,572,263.7) translate(28.95 25.1)"/><use xlink:href="#C" transform="matrix(1,0,0,1,572,263.7) translate(97.75000000000001 25.1)"/><use xlink:href="#D" transform="matrix(1,0,0,1,572,263.7) translate(142.70000000000002 25.1)"/><use xlink:href="#E" transform="matrix(1,0,0,1,572,263.7) translate(189.65000000000003 25.1)"/><path d="M1080 475h300v327h-300z" stroke="#333" stroke-width="2" fill="#fff"/><path d="M1080 512.6h300m-300 209.3h300" stroke="#333" stroke-width="2" fill="none"/><use xlink:href="#F" transform="matrix(1,0,0,1,1088,483) translate(70.82499999999999 14.6)"/><use xlink:href="#G" transform="matrix(1,0,0,1,1088,483) translate(125.27499999999999 14.6)"/><use xlink:href="#H" transform="matrix(1,0,0,1,1092,520.6) translate(0 25.000000000000007)"/><use xlink:href="#d" transform="matrix(1,0,0,1,1092,520.6) translate(48 25.000000000000007)"/><use xlink:href="#I" transform="matrix(1,0,0,1,1092,520.6) translate(0 46.60000000000001)"/><use xlink:href="#H" transform="matrix(1,0,0,1,1092,520.6) translate(0 68.20000000000002)"/><use xlink:href="#d" transform="matrix(1,0,0,1,1092,520.6) translate(48 68.20000000000002)"/><use xlink:href="#J" transform="matrix(1,0,0,1,1092,520.6) translate(0 89.80000000000003)"/><use xlink:href="#H" transform="matrix(1,0,0,1,1092,520.6) translate(0 111.40000000000002)"/><use xlink:href="#d" transform="matrix(1,0,0,1,1092,520.6) translate(48 111.40000000000002)"/><use xlink:href="#I" transform="matrix(1,0,0,1,1092,520.6) translate(0 133)"/><use xlink:href="#K" transform="matrix(1,0,0,1,1092,520.6) translate(0 154.6)"/><use xlink:href="#L" transform="matrix(1,0,0,1,1092,520.6) translate(48.95 154.6)"/><use xlink:href="#K" transform="matrix(1,0,0,1,1092,520.6) translate(0 176.20000000000002)"/><use xlink:href="#M" transform="matrix(1,0,0,1,1092,520.6) translate(48.95 176.20000000000002)"/><g><use xlink:href="#N" transform="matrix(1,0,0,1,1092,729.9) translate(0 24.799999999999997)"/><use xlink:href="#O" transform="matrix(1,0,0,1,1092,729.9) translate(0 46.4)"/></g><path d="M1220.02 473.5V249c0-6.63-5.37-12-12-12H891.38" stroke="#333" fill="none"/><path d="M1220.52 474h-1v-.5h1z" fill="#333"/><path d="M861.7 237l14.86-14.85L891.7 237l-15.14 14.85z" stroke="#333" fill="#fff"/><path d="M1078.5 638.5H982c-6.63 0-12-5.37-12-12v-30.3c0-6.63-5.37-12-12-12h-80.62" stroke="#333" fill="none"/><path d="M1079 639h-.5v-1h.5z" fill="#333"/><path d="M862.62 584.2l14.26-4.64v9.27z" stroke="#333" fill="#333"/><path d="M580 900h300v154H580z" stroke="#333" stroke-width="2" fill="#fff"/><path d="M580 937.6h300m-300 58.1h300" stroke="#333" stroke-width="2" fill="none"/><g><use xlink:href="#P" transform="matrix(1,0,0,1,588,908) translate(119.225 14.6)"/></g><g><use xlink:href="#Q" transform="matrix(1,0,0,1,592,1003.7) translate(0 25.1)"/></g><path d="M730 899" stroke="#333" fill="none"/><path fill="#333"/><path d="M728.38 899l-14.26 4.64v-9.28z" stroke="#333" fill="#333"/><path d="M710 692v190.62" stroke="#333" fill="none"/><path d="M710.5 692.03h-1v-.52h1z" fill="#333"/><path d="M710 897.38l-4.64-14.26h9.28z" stroke="#333" fill="#333"/><path d="M1230 803.5V965c0 6.63-5.37 12-12 12H897.38" stroke="#333" fill="none"/><path d="M1230.5 803.5h-1v-.5h1z" fill="#333"/><path d="M882.62 977l14.26-4.64v9.28z" stroke="#333" fill="#333"/><path d="M210 677.86V965c0 6.63 5.37 12 12 12h340.62" stroke="#333" fill="none"/><path d="M210.5 677.87h-1v-.5h1z" fill="#333"/><path d="M577.38 977l-14.26 4.64v-9.28z" stroke="#333" fill="#333"/><defs><path fill="#333" d="M182 0l-62-99L58 0H3l86-130-79-118h55l55 88 55-88h55l-75 118L237 0h-55" id="R"/><path fill="#333" d="M230 0l2-204L168 0h-37L68-204 70 0H24v-248h70l56 185 57-185h69V0h-46" id="S"/><path fill="#333" d="M24 0v-248h52v208h133V0H24" id="T"/><path fill="#333" d="M24-248c93 1 206-16 204 79-1 75-69 88-152 82V0H24v-248zm52 121c47 0 100 7 100-41 0-47-54-39-100-39v80" id="U"/><path fill="#333" d="M135-150c-39-12-60 13-60 57V0H25l-1-190h47c2 13-1 29 3 40 6-28 27-53 61-41v41" id="V"/><path fill="#333" d="M110-194c64 0 96 36 96 99 0 64-35 99-97 99-61 0-95-36-95-99 0-62 34-99 96-99zm-1 164c35 0 45-28 45-65 0-40-10-65-43-65-34 0-45 26-45 65 0 36 10 65 43 65" id="W"/><path fill="#333" d="M190-63c-7 42-38 67-86 67-59 0-84-38-90-98-12-110 154-137 174-36l-49 2c-2-19-15-32-35-32-30 0-35 28-38 64-6 74 65 87 74 30" id="X"/><path fill="#333" d="M185-48c-13 30-37 53-82 52C43 2 14-33 14-96s30-98 90-98c62 0 83 45 84 108H66c0 31 8 55 39 56 18 0 30-7 34-22zm-45-69c5-46-57-63-70-21-2 6-4 13-4 21h74" id="Y"/><path fill="#333" d="M137-138c1-29-70-34-71-4 15 46 118 7 119 86 1 83-164 76-172 9l43-7c4 19 20 25 44 25 33 8 57-30 24-41C81-84 22-81 20-136c-2-80 154-74 161-7" id="Z"/><g id="a"><use transform="matrix(0.05,0,0,0.05,0,0)" xlink:href="#R"/><use transform="matrix(0.05,0,0,0.05,12,0)" xlink:href="#S"/><use transform="matrix(0.05,0,0,0.05,26.950000000000003,0)" xlink:href="#T"/><use transform="matrix(0.05,0,0,0.05,37.900000000000006,0)" xlink:href="#U"/><use transform="matrix(0.05,0,0,0.05,49.900000000000006,0)" xlink:href="#V"/><use transform="matrix(0.05,0,0,0.05,56.900000000000006,0)" xlink:href="#W"/><use transform="matrix(0.05,0,0,0.05,67.85000000000001,0)" xlink:href="#X"/><use transform="matrix(0.05,0,0,0.05,77.85000000000001,0)" xlink:href="#Y"/><use transform="matrix(0.05,0,0,0.05,87.85000000000001,0)" xlink:href="#Z"/><use transform="matrix(0.05,0,0,0.05,97.85000000000001,0)" xlink:href="#Z"/><use transform="matrix(0.05,0,0,0.05,107.85000000000001,0)" xlink:href="#W"/><use transform="matrix(0.05,0,0,0.05,118.80000000000001,0)" xlink:href="#V"/></g><path fill="#333" d="M96-169c-40 0-48 33-48 73s9 75 48 75c24 0 41-14 43-38l32 2c-6 37-31 61-74 61-59 0-76-41-82-99-10-93 101-131 147-64 4 7 5 14 7 22l-32 3c-4-21-16-35-41-35" id="aa"/><path fill="#333" d="M100-194c62-1 85 37 85 99 1 63-27 99-86 99S16-35 15-95c0-66 28-99 85-99zM99-20c44 1 53-31 53-75 0-43-8-75-51-75s-53 32-53 75 10 74 51 75" id="ab"/><path fill="#333" d="M117-194c89-4 53 116 60 194h-32v-121c0-31-8-49-39-48C34-167 62-67 57 0H25l-1-190h30c1 10-1 24 2 32 11-22 29-35 61-36" id="ac"/><path fill="#333" d="M135-143c-3-34-86-38-87 0 15 53 115 12 119 90S17 21 10-45l28-5c4 36 97 45 98 0-10-56-113-15-118-90-4-57 82-63 122-42 12 7 21 19 24 35" id="ad"/><path fill="#333" d="M59-47c-2 24 18 29 38 22v24C64 9 27 4 27-40v-127H5v-23h24l9-43h21v43h35v23H59v120" id="ae"/><g id="c"><use transform="matrix(0.05,0,0,0.05,0,0)" xlink:href="#aa"/><use transform="matrix(0.05,0,0,0.05,9,0)" xlink:href="#ab"/><use transform="matrix(0.05,0,0,0.05,19,0)" xlink:href="#ac"/><use transform="matrix(0.05,0,0,0.05,29,0)" xlink:href="#ad"/><use transform="matrix(0.05,0,0,0.05,38,0)" xlink:href="#ae"/></g><path fill="#333" d="M106-169C34-169 62-67 57 0H25v-261h32l-1 103c12-21 28-36 61-36 89 0 53 116 60 194h-32v-121c2-32-8-49-39-48" id="af"/><path fill="#333" d="M141-36C126-15 110 5 73 4 37 3 15-17 15-53c-1-64 63-63 125-63 3-35-9-54-41-54-24 1-41 7-42 31l-33-3c5-37 33-52 76-52 45 0 72 20 72 64v82c-1 20 7 32 28 27v20c-31 9-61-2-59-35zM48-53c0 20 12 33 32 33 41-3 63-29 60-74-43 2-92-5-92 41" id="ag"/><path fill="#333" d="M114-163C36-179 61-72 57 0H25l-1-190h30c1 12-1 29 2 39 6-27 23-49 58-41v29" id="ah"/><path fill="#333" d="M80-196l47-18 7 23-49 13 32 44-20 13-27-46-27 45-21-12 33-44-49-13 8-23 47 19-2-53h23" id="ai"/><g id="d"><use transform="matrix(0.05,0,0,0.05,0,0)" xlink:href="#aa"/><use transform="matrix(0.05,0,0,0.05,9,0)" xlink:href="#af"/><use transform="matrix(0.05,0,0,0.05,19,0)" xlink:href="#ag"/><use transform="matrix(0.05,0,0,0.05,29,0)" xlink:href="#ah"/><use transform="matrix(0.05,0,0,0.05,34.95,0)" xlink:href="#ai"/></g><path fill="#333" d="M210-169c-67 3-38 105-44 169h-31v-121c0-29-5-50-35-48C34-165 62-65 56 0H25l-1-190h30c1 10-1 24 2 32 10-44 99-50 107 0 11-21 27-35 58-36 85-2 47 119 55 194h-31v-121c0-29-5-49-35-48" id="aj"/><path fill="#333" d="M-5 72V49h209v23H-5" id="ak"/><path fill="#333" d="M24-231v-30h32v30H24zM24 0v-190h32V0H24" id="al"/><path fill="#333" d="M115-194c55 1 70 41 70 98S169 2 115 4C84 4 66-9 55-30l1 105H24l-1-265h31l2 30c10-21 28-34 59-34zm-8 174c40 0 45-34 45-75s-6-73-45-74c-42 0-51 32-51 76 0 43 10 73 51 73" id="am"/><path fill="#333" d="M84 4C-5 8 30-112 23-190h32v120c0 31 7 50 39 49 72-2 45-101 50-169h31l1 190h-30c-1-10 1-25-2-33-11 22-28 36-60 37" id="an"/><path fill="#333" d="M195 0l-74-108L45 0H8l94-129-87-119h37l69 98 67-98h37l-84 118L233 0h-38" id="ao"/><path fill="#333" d="M240 0l2-218c-23 76-54 145-80 218h-23L58-218 59 0H30v-248h44l77 211c21-75 51-140 76-211h43V0h-30" id="ap"/><path fill="#333" d="M30 0v-248h33v221h125V0H30" id="aq"/><path fill="#333" d="M101-234c-31-9-42 10-38 44h38v23H63V0H32v-167H5v-23h27c-7-52 17-82 69-68v24" id="ar"/><path fill="#333" d="M24 0v-261h32V0H24" id="as"/><path fill="#333" d="M100-194c63 0 86 42 84 106H49c0 40 14 67 53 68 26 1 43-12 49-29l28 8c-11 28-37 45-77 45C44 4 14-33 15-96c1-61 26-98 85-98zm52 81c6-60-76-77-97-28-3 7-6 17-6 28h103" id="at"/><path fill="#333" d="M190 0L58-211 59 0H30v-248h39L202-35l-2-213h31V0h-41" id="au"/><path fill="#333" d="M68-36c1 33-1 63-14 82H32c9-13 17-26 17-46H33v-36h35zM33-154v-36h35v36H33" id="av"/><g id="e"><use transform="matrix(0.05,0,0,0.05,0,0)" xlink:href="#aj"/><use transform="matrix(0.05,0,0,0.05,14.950000000000001,0)" xlink:href="#ak"/><use transform="matrix(0.05,0,0,0.05,24.950000000000003,0)" xlink:href="#al"/><use transform="matrix(0.05,0,0,0.05,28.900000000000002,0)" xlink:href="#ac"/><use transform="matrix(0.05,0,0,0.05,38.900000000000006,0)" xlink:href="#am"/><use transform="matrix(0.05,0,0,0.05,48.900000000000006,0)" xlink:href="#an"/><use transform="matrix(0.05,0,0,0.05,58.900000000000006,0)" xlink:href="#ae"/><use transform="matrix(0.05,0,0,0.05,63.900000000000006,0)" xlink:href="#ao"/><use transform="matrix(0.05,0,0,0.05,75.9,0)" xlink:href="#ap"/><use transform="matrix(0.05,0,0,0.05,90.85000000000001,0)" xlink:href="#aq"/><use transform="matrix(0.05,0,0,0.05,100.85000000000001,0)" xlink:href="#ar"/><use transform="matrix(0.05,0,0,0.05,105.85000000000001,0)" xlink:href="#al"/><use transform="matrix(0.05,0,0,0.05,109.80000000000001,0)" xlink:href="#as"/><use transform="matrix(0.05,0,0,0.05,113.75,0)" xlink:href="#at"/><use transform="matrix(0.05,0,0,0.05,123.75,0)" xlink:href="#au"/><use transform="matrix(0.05,0,0,0.05,136.70000000000002,0)" xlink:href="#ag"/><use transform="matrix(0.05,0,0,0.05,146.70000000000002,0)" xlink:href="#aj"/><use transform="matrix(0.05,0,0,0.05,161.65,0)" xlink:href="#at"/><use transform="matrix(0.05,0,0,0.05,171.65,0)" xlink:href="#av"/></g><path fill="#333" d="M30-248c118-7 216 8 213 122C240-48 200 0 122 0H30v-248zM63-27c89 8 146-16 146-99s-60-101-146-95v194" id="aw"/><g id="f"><use transform="matrix(0.05,0,0,0.05,0,0)" xlink:href="#ao"/><use transform="matrix(0.05,0,0,0.05,12,0)" xlink:href="#ap"/><use transform="matrix(0.05,0,0,0.05,26.950000000000003,0)" xlink:href="#aq"/><use transform="matrix(0.05,0,0,0.05,36.95,0)" xlink:href="#aw"/><use transform="matrix(0.05,0,0,0.05,49.900000000000006,0)" xlink:href="#ab"/><use transform="matrix(0.05,0,0,0.05,59.900000000000006,0)" xlink:href="#aa"/><use transform="matrix(0.05,0,0,0.05,68.9,0)" xlink:href="#an"/><use transform="matrix(0.05,0,0,0.05,78.9,0)" xlink:href="#aj"/><use transform="matrix(0.05,0,0,0.05,93.85000000000001,0)" xlink:href="#at"/><use transform="matrix(0.05,0,0,0.05,103.85000000000001,0)" xlink:href="#ac"/><use transform="matrix(0.05,0,0,0.05,113.85000000000001,0)" xlink:href="#ae"/></g><path fill="#333" d="M85-194c31 0 48 13 60 33l-1-100h32l1 261h-30c-2-10 0-23-3-31C134-8 116 4 85 4 32 4 16-35 15-94c0-66 23-100 70-100zm9 24c-40 0-46 34-46 75 0 40 6 74 45 74 42 0 51-32 51-76 0-42-9-74-50-73" id="ax"/><g id="g"><use transform="matrix(0.05,0,0,0.05,0,0)" xlink:href="#aj"/><use transform="matrix(0.05,0,0,0.05,14.950000000000001,0)" xlink:href="#ak"/><use transform="matrix(0.05,0,0,0.05,24.950000000000003,0)" xlink:href="#ax"/><use transform="matrix(0.05,0,0,0.05,34.95,0)" xlink:href="#ab"/><use transform="matrix(0.05,0,0,0.05,44.95,0)" xlink:href="#aa"/><use transform="matrix(0.05,0,0,0.05,53.95,0)" xlink:href="#av"/></g><path fill="#333" d="M87 75C49 33 22-17 22-94c0-76 28-126 65-167h31c-38 41-64 92-64 168S80 34 118 75H87" id="ay"/><path fill="#333" d="M33-261c38 41 65 92 65 168S71 34 33 75H2C39 34 66-17 66-93S39-220 2-261h31" id="az"/><g id="h"><use transform="matrix(0.05,0,0,0.05,0,0)" xlink:href="#aq"/><use transform="matrix(0.05,0,0,0.05,10,0)" xlink:href="#ab"/><use transform="matrix(0.05,0,0,0.05,20,0)" xlink:href="#ag"/><use transform="matrix(0.05,0,0,0.05,30,0)" xlink:href="#ax"/><use transform="matrix(0.05,0,0,0.05,40,0)" xlink:href="#ao"/><use transform="matrix(0.05,0,0,0.05,52,0)" xlink:href="#ap"/><use transform="matrix(0.05,0,0,0.05,66.95,0)" xlink:href="#aq"/><use transform="matrix(0.05,0,0,0.05,76.95,0)" xlink:href="#ay"/><use transform="matrix(0.05,0,0,0.05,82.9,0)" xlink:href="#az"/></g><path fill="#333" d="M212-179c-10-28-35-45-73-45-59 0-87 40-87 99 0 60 29 101 89 101 43 0 62-24 78-52l27 14C228-24 195 4 139 4 59 4 22-46 18-125c-6-104 99-153 187-111 19 9 31 26 39 46" id="aA"/><path fill="#333" d="M197 0v-115H63V0H30v-248h33v105h134v-105h34V0h-34" id="aB"/><path fill="#333" d="M127-220V0H93v-220H8v-28h204v28h-85" id="aC"/><path fill="#333" d="M30 0v-248h187v28H63v79h144v27H63v87h162V0H30" id="aD"/><g id="i"><use transform="matrix(0.05,0,0,0.05,0,0)" xlink:href="#aA"/><use transform="matrix(0.05,0,0,0.05,12.950000000000001,0)" xlink:href="#ah"/><use transform="matrix(0.05,0,0,0.05,18.900000000000002,0)" xlink:href="#at"/><use transform="matrix(0.05,0,0,0.05,28.900000000000002,0)" xlink:href="#ag"/><use transform="matrix(0.05,0,0,0.05,38.900000000000006,0)" xlink:href="#ae"/><use transform="matrix(0.05,0,0,0.05,43.900000000000006,0)" xlink:href="#at"/><use transform="matrix(0.05,0,0,0.05,53.900000000000006,0)" xlink:href="#aB"/><use transform="matrix(0.05,0,0,0.05,66.85000000000001,0)" xlink:href="#aC"/><use transform="matrix(0.05,0,0,0.05,77.80000000000001,0)" xlink:href="#ap"/><use transform="matrix(0.05,0,0,0.05,92.75000000000001,0)" xlink:href="#aq"/><use transform="matrix(0.05,0,0,0.05,102.75,0)" xlink:href="#aD"/><use transform="matrix(0.05,0,0,0.05,114.75,0)" xlink:href="#as"/><use transform="matrix(0.05,0,0,0.05,118.7,0)" xlink:href="#at"/><use transform="matrix(0.05,0,0,0.05,128.70000000000002,0)" xlink:href="#aj"/><use transform="matrix(0.05,0,0,0.05,143.65,0)" xlink:href="#at"/><use transform="matrix(0.05,0,0,0.05,153.65,0)" xlink:href="#ac"/><use transform="matrix(0.05,0,0,0.05,163.65,0)" xlink:href="#ae"/><use transform="matrix(0.05,0,0,0.05,168.65,0)" xlink:href="#ad"/><use transform="matrix(0.05,0,0,0.05,177.65,0)" xlink:href="#ay"/><use transform="matrix(0.05,0,0,0.05,183.6,0)" xlink:href="#az"/></g><path fill="#333" d="M115-3C79 11 28 4 28-45v-112H4v-33h27l15-45h31v45h36v33H77v99c-1 23 16 31 38 25v30" id="aE"/><path fill="#333" d="M25-224v-37h50v37H25zM25 0v-190h50V0H25" id="aF"/><path fill="#333" d="M135-194c87-1 58 113 63 194h-50c-7-57 23-157-34-157-59 0-34 97-39 157H25l-1-190h47c2 12-1 28 3 38 12-26 28-41 61-42" id="aG"/><path fill="#333" d="M123 10C108 53 80 86 19 72V37c35 8 53-11 59-39L3-190h52l48 148c12-52 28-100 44-148h51" id="aH"/><path fill="#333" d="M144 0l-44-69L55 0H2l70-98-66-92h53l41 62 40-62h54l-67 91 71 99h-54" id="aI"/><path fill="#333" d="M220-157c-53 9-28 100-34 157h-49v-107c1-27-5-49-29-50C55-147 81-57 75 0H25l-1-190h47c2 12-1 28 3 38 10-53 101-56 108 0 13-22 24-43 59-42 82 1 51 116 57 194h-49v-107c-1-25-5-48-29-50" id="aJ"/><path fill="#333" d="M25 0v-261h50V0H25" id="aK"/><path fill="#333" d="M182-182c0 78-84 86-111 141h115V0H12c-6-101 99-100 120-180 1-22-12-31-33-32-23 0-32 14-35 34l-49-3c5-45 32-70 84-70 51 0 83 22 83 69" id="aL"/><g id="j"><use transform="matrix(0.05,0,0,0.05,0,0)" xlink:href="#aE"/><use transform="matrix(0.05,0,0,0.05,5.95,0)" xlink:href="#aF"/><use transform="matrix(0.05,0,0,0.05,10.95,0)" xlink:href="#aG"/><use transform="matrix(0.05,0,0,0.05,21.9,0)" xlink:href="#aH"/><use transform="matrix(0.05,0,0,0.05,31.899999999999995,0)" xlink:href="#aI"/><use transform="matrix(0.05,0,0,0.05,41.9,0)" xlink:href="#aJ"/><use transform="matrix(0.05,0,0,0.05,57.900000000000006,0)" xlink:href="#aK"/><use transform="matrix(0.05,0,0,0.05,62.900000000000006,0)" xlink:href="#aL"/></g><path fill="#333" d="M63-220v92h138v28H63V0H30v-248h175v28H63" id="aM"/><g id="k"><use transform="matrix(0.05,0,0,0.05,0,0)" xlink:href="#aq"/><use transform="matrix(0.05,0,0,0.05,10,0)" xlink:href="#ab"/><use transform="matrix(0.05,0,0,0.05,20,0)" xlink:href="#ag"/><use transform="matrix(0.05,0,0,0.05,30,0)" xlink:href="#ax"/><use transform="matrix(0.05,0,0,0.05,40,0)" xlink:href="#aM"/><use transform="matrix(0.05,0,0,0.05,50.95,0)" xlink:href="#al"/><use transform="matrix(0.05,0,0,0.05,54.900000000000006,0)" xlink:href="#as"/><use transform="matrix(0.05,0,0,0.05,58.85,0)" xlink:href="#at"/><use transform="matrix(0.05,0,0,0.05,68.85000000000001,0)" xlink:href="#ay"/><use transform="matrix(0.05,0,0,0.05,74.80000000000001,0)" xlink:href="#az"/></g><g id="l"><use transform="matrix(0.05,0,0,0.05,0,0)" xlink:href="#aM"/><use transform="matrix(0.05,0,0,0.05,10.950000000000001,0)" xlink:href="#al"/><use transform="matrix(0.05,0,0,0.05,14.9,0)" xlink:href="#ah"/><use transform="matrix(0.05,0,0,0.05,20.85,0)" xlink:href="#ad"/><use transform="matrix(0.05,0,0,0.05,29.85,0)" xlink:href="#ae"/><use transform="matrix(0.05,0,0,0.05,34.85,0)" xlink:href="#aA"/><use transform="matrix(0.05,0,0,0.05,47.800000000000004,0)" xlink:href="#af"/><use transform="matrix(0.05,0,0,0.05,57.800000000000004,0)" xlink:href="#al"/><use transform="matrix(0.05,0,0,0.05,61.75,0)" xlink:href="#as"/><use transform="matrix(0.05,0,0,0.05,65.7,0)" xlink:href="#ax"/><use transform="matrix(0.05,0,0,0.05,75.7,0)" xlink:href="#aD"/><use transform="matrix(0.05,0,0,0.05,87.7,0)" xlink:href="#as"/><use transform="matrix(0.05,0,0,0.05,91.65,0)" xlink:href="#at"/><use transform="matrix(0.05,0,0,0.05,101.65,0)" xlink:href="#aj"/><use transform="matrix(0.05,0,0,0.05,116.60000000000001,0)" xlink:href="#at"/><use transform="matrix(0.05,0,0,0.05,126.60000000000001,0)" xlink:href="#ac"/><use transform="matrix(0.05,0,0,0.05,136.60000000000002,0)" xlink:href="#ae"/><use transform="matrix(0.05,0,0,0.05,141.60000000000002,0)" xlink:href="#ay"/><use transform="matrix(0.05,0,0,0.05,147.55,0)" xlink:href="#az"/></g><path fill="#333" d="M16-82v-28h88v28H16" id="aN"/><path fill="#333" d="M18-27v-27l151-64-151-65v-27l175 74v36" id="aO"/><path fill="#333" d="M141 0L90-78 38 0H4l68-98-65-92h35l48 74 47-74h35l-64 92 68 98h-35" id="aP"/><path fill="#333" d="M185-189c-5-48-123-54-124 2 14 75 158 14 163 119 3 78-121 87-175 55-17-10-28-26-33-46l33-7c5 56 141 63 141-1 0-78-155-14-162-118-5-82 145-84 179-34 5 7 8 16 11 25" id="aQ"/><path fill="#333" d="M115-194c53 0 69 39 70 98 0 66-23 100-70 100C84 3 66-7 56-30L54 0H23l1-261h32v101c10-23 28-34 59-34zm-8 174c40 0 45-34 45-75 0-40-5-75-45-74-42 0-51 32-51 76 0 43 10 73 51 73" id="aR"/><path fill="#333" d="M177-190C167-65 218 103 67 71c-23-6-38-20-44-43l32-5c15 47 100 32 89-28v-30C133-14 115 1 83 1 29 1 15-40 15-95c0-56 16-97 71-98 29-1 48 16 59 35 1-10 0-23 2-32h30zM94-22c36 0 50-32 50-73 0-42-14-75-50-75-39 0-46 34-46 75s6 73 46 73" id="aS"/><path fill="#333" d="M109-170H84l-4-78h32zm-65 0H19l-4-78h33" id="aT"/><g id="m"><use transform="matrix(0.05,0,0,0.05,0,0)" xlink:href="#aa"/><use transform="matrix(0.05,0,0,0.05,9,0)" xlink:href="#af"/><use transform="matrix(0.05,0,0,0.05,19,0)" xlink:href="#al"/><use transform="matrix(0.05,0,0,0.05,22.95,0)" xlink:href="#as"/><use transform="matrix(0.05,0,0,0.05,26.899999999999995,0)" xlink:href="#ax"/><use transform="matrix(0.05,0,0,0.05,36.9,0)" xlink:href="#aN"/><use transform="matrix(0.05,0,0,0.05,42.85,0)" xlink:href="#aO"/><use transform="matrix(0.05,0,0,0.05,53.35,0)" xlink:href="#au"/><use transform="matrix(0.05,0,0,0.05,66.3,0)" xlink:href="#at"/><use transform="matrix(0.05,0,0,0.05,76.3,0)" xlink:href="#aP"/><use transform="matrix(0.05,0,0,0.05,85.3,0)" xlink:href="#ae"/><use transform="matrix(0.05,0,0,0.05,90.3,0)" xlink:href="#aQ"/><use transform="matrix(0.05,0,0,0.05,102.3,0)" xlink:href="#al"/><use transform="matrix(0.05,0,0,0.05,106.25,0)" xlink:href="#aR"/><use transform="matrix(0.05,0,0,0.05,116.25,0)" xlink:href="#as"/><use transform="matrix(0.05,0,0,0.05,120.2,0)" xlink:href="#al"/><use transform="matrix(0.05,0,0,0.05,124.15,0)" xlink:href="#ac"/><use transform="matrix(0.05,0,0,0.05,134.15,0)" xlink:href="#aS"/><use transform="matrix(0.05,0,0,0.05,144.15,0)" xlink:href="#aD"/><use transform="matrix(0.05,0,0,0.05,156.15,0)" xlink:href="#as"/><use transform="matrix(0.05,0,0,0.05,160.1,0)" xlink:href="#at"/><use transform="matrix(0.05,0,0,0.05,170.1,0)" xlink:href="#aj"/><use transform="matrix(0.05,0,0,0.05,185.04999999999998,0)" xlink:href="#at"/><use transform="matrix(0.05,0,0,0.05,195.04999999999998,0)" xlink:href="#ac"/><use transform="matrix(0.05,0,0,0.05,205.04999999999995,0)" xlink:href="#ae"/><use transform="matrix(0.05,0,0,0.05,210.04999999999995,0)" xlink:href="#ay"/><use transform="matrix(0.05,0,0,0.05,215.99999999999997,0)" xlink:href="#aT"/><use transform="matrix(0.05,0,0,0.05,222.34999999999997,0)" xlink:href="#az"/></g><path fill="#a9afb8" d="M67-125c0 53 21 87 73 88 37 1 54-22 65-47l45 17C233-25 199 4 140 4 58 4 20-42 15-125 8-235 124-281 211-232c18 10 29 29 36 50l-46 12c-8-25-30-41-62-41-52 0-71 34-72 86" id="aU"/><path fill="#a9afb8" d="M25 0v-261h50V0H25" id="aV"/><path fill="#a9afb8" d="M133-34C117-15 103 5 69 4 32 3 11-16 11-54c-1-60 55-63 116-61 1-26-3-47-28-47-18 1-26 9-28 27l-52-2c7-38 36-58 82-57s74 22 75 68l1 82c-1 14 12 18 25 15v27c-30 8-71 5-69-32zm-48 3c29 0 43-24 42-57-32 0-66-3-65 30 0 17 8 27 23 27" id="aW"/><path fill="#a9afb8" d="M137-138c1-29-70-34-71-4 15 46 118 7 119 86 1 83-164 76-172 9l43-7c4 19 20 25 44 25 33 8 57-30 24-41C81-84 22-81 20-136c-2-80 154-74 161-7" id="aX"/><g id="n"><use transform="matrix(0.0728395061728395,0,0,0.0728395061728395,0,0)" xlink:href="#aU"/><use transform="matrix(0.0728395061728395,0,0,0.0728395061728395,18.86543209876543,0)" xlink:href="#aV"/><use transform="matrix(0.0728395061728395,0,0,0.0728395061728395,26.14938271604938,0)" xlink:href="#aW"/><use transform="matrix(0.0728395061728395,0,0,0.0728395061728395,40.717283950617286,0)" xlink:href="#aX"/><use transform="matrix(0.0728395061728395,0,0,0.0728395061728395,55.28518518518518,0)" xlink:href="#aX"/></g><path fill="#a9afb8" d="M24-248c120-7 223 5 221 122C244-46 201 0 124 0H24v-248zM76-40c74 7 117-18 117-86 0-67-45-88-117-82v168" id="aY"/><path fill="#a9afb8" d="M25-224v-37h50v37H25zM25 0v-190h50V0H25" id="aZ"/><path fill="#a9afb8" d="M195-6C206 82 75 100 31 46c-4-6-6-13-8-21l49-6c3 16 16 24 34 25 40 0 42-37 40-79-11 22-30 35-61 35-53 0-70-43-70-97 0-56 18-96 73-97 30 0 46 14 59 34l2-30h47zm-90-29c32 0 41-27 41-63 0-35-9-62-40-62-32 0-39 29-40 63 0 36 9 62 39 62" id="ba"/><path fill="#a9afb8" d="M135-150c-39-12-60 13-60 57V0H25l-1-190h47c2 13-1 29 3 40 6-28 27-53 61-41v41" id="bb"/><path fill="#a9afb8" d="M220-157c-53 9-28 100-34 157h-49v-107c1-27-5-49-29-50C55-147 81-57 75 0H25l-1-190h47c2 12-1 28 3 38 10-53 101-56 108 0 13-22 24-43 59-42 82 1 51 116 57 194h-49v-107c-1-25-5-48-29-50" id="bc"/><g id="o"><use transform="matrix(0.0728395061728395,0,0,0.0728395061728395,0,0)" xlink:href="#aY"/><use transform="matrix(0.0728395061728395,0,0,0.0728395061728395,18.86543209876543,0)" xlink:href="#aZ"/><use transform="matrix(0.0728395061728395,0,0,0.0728395061728395,26.14938271604938,0)" xlink:href="#aW"/><use transform="matrix(0.0728395061728395,0,0,0.0728395061728395,40.717283950617286,0)" xlink:href="#ba"/><use transform="matrix(0.0728395061728395,0,0,0.0728395061728395,56.66913580246913,0)" xlink:href="#bb"/><use transform="matrix(0.0728395061728395,0,0,0.0728395061728395,66.86666666666666,0)" xlink:href="#aW"/><use transform="matrix(0.0728395061728395,0,0,0.0728395061728395,81.43456790123457,0)" xlink:href="#bc"/><use transform="matrix(0.0728395061728395,0,0,0.0728395061728395,104.7432098765432,0)" xlink:href="#aX"/></g><path fill="#a9afb8" d="M121-226c-27-7-43 5-38 36h38v33H83V0H34v-157H6v-33h28c-9-59 32-81 87-68v32" id="bd"/><path fill="#a9afb8" d="M110-194c64 0 96 36 96 99 0 64-35 99-97 99-61 0-95-36-95-99 0-62 34-99 96-99zm-1 164c35 0 45-28 45-65 0-40-10-65-43-65-34 0-45 26-45 65 0 36 10 65 43 65" id="be"/><g id="p"><use transform="matrix(0.0728395061728395,0,0,0.0728395061728395,0,0)" xlink:href="#bd"/><use transform="matrix(0.0728395061728395,0,0,0.0728395061728395,8.667901234567902,0)" xlink:href="#be"/><use transform="matrix(0.0728395061728395,0,0,0.0728395061728395,24.619753086419752,0)" xlink:href="#bb"/></g><path fill="#a9afb8" d="M182 0l-62-99L58 0H3l86-130-79-118h55l55 88 55-88h55l-75 118L237 0h-55" id="bf"/><path fill="#a9afb8" d="M230 0l2-204L168 0h-37L68-204 70 0H24v-248h70l56 185 57-185h69V0h-46" id="bg"/><path fill="#a9afb8" d="M24 0v-248h52v208h133V0H24" id="bh"/><path fill="#a9afb8" d="M115-3C79 11 28 4 28-45v-112H4v-33h27l15-45h31v45h36v33H77v99c-1 23 16 31 38 25v30" id="bi"/><path fill="#a9afb8" d="M186 0v-106H76V0H24v-248h52v99h110v-99h50V0h-50" id="bj"/><path fill="#a9afb8" d="M136-208V0H84v-208H4v-40h212v40h-80" id="bk"/><g id="q"><use transform="matrix(0.0728395061728395,0,0,0.0728395061728395,0,0)" xlink:href="#bf"/><use transform="matrix(0.0728395061728395,0,0,0.0728395061728395,17.48148148148148,0)" xlink:href="#bg"/><use transform="matrix(0.0728395061728395,0,0,0.0728395061728395,39.26049382716049,0)" xlink:href="#bh"/><use transform="matrix(0.0728395061728395,0,0,0.0728395061728395,55.21234567901234,0)" xlink:href="#bi"/><use transform="matrix(0.0728395061728395,0,0,0.0728395061728395,63.88024691358024,0)" xlink:href="#be"/><use transform="matrix(0.0728395061728395,0,0,0.0728395061728395,79.8320987654321,0)" xlink:href="#bj"/><use transform="matrix(0.0728395061728395,0,0,0.0728395061728395,98.69753086419752,0)" xlink:href="#bk"/><use transform="matrix(0.0728395061728395,0,0,0.0728395061728395,114.64938271604937,0)" xlink:href="#bg"/><use transform="matrix(0.0728395061728395,0,0,0.0728395061728395,136.4283950617284,0)" xlink:href="#bh"/></g><path fill="#a9afb8" d="M135-194c87-1 58 113 63 194h-50c-7-57 23-157-34-157-59 0-34 97-39 157H25l-1-190h47c2 12-1 28 3 38 12-26 28-41 61-42" id="bl"/><path fill="#a9afb8" d="M128 0H69L1-190h53L99-40l48-150h52" id="bm"/><path fill="#a9afb8" d="M185-48c-13 30-37 53-82 52C43 2 14-33 14-96s30-98 90-98c62 0 83 45 84 108H66c0 31 8 55 39 56 18 0 30-7 34-22zm-45-69c5-46-57-63-70-21-2 6-4 13-4 21h74" id="bn"/><g id="r"><use transform="matrix(0.0728395061728395,0,0,0.0728395061728395,0,0)" xlink:href="#aU"/><use transform="matrix(0.0728395061728395,0,0,0.0728395061728395,18.86543209876543,0)" xlink:href="#be"/><use transform="matrix(0.0728395061728395,0,0,0.0728395061728395,34.81728395061728,0)" xlink:href="#bl"/><use transform="matrix(0.0728395061728395,0,0,0.0728395061728395,50.76913580246913,0)" xlink:href="#bm"/><use transform="matrix(0.0728395061728395,0,0,0.0728395061728395,65.33703703703704,0)" xlink:href="#bn"/><use transform="matrix(0.0728395061728395,0,0,0.0728395061728395,79.90493827160493,0)" xlink:href="#bb"/><use transform="matrix(0.0728395061728395,0,0,0.0728395061728395,90.10246913580247,0)" xlink:href="#bi"/><use transform="matrix(0.0728395061728395,0,0,0.0728395061728395,98.77037037037037,0)" xlink:href="#bn"/><use transform="matrix(0.0728395061728395,0,0,0.0728395061728395,113.33827160493827,0)" xlink:href="#bb"/></g><path fill="#a9afb8" d="M114-163C36-179 61-72 57 0H25l-1-190h30c1 12-1 29 2 39 6-27 23-49 58-41v29" id="bo"/><path fill="#a9afb8" d="M141-36C126-15 110 5 73 4 37 3 15-17 15-53c-1-64 63-63 125-63 3-35-9-54-41-54-24 1-41 7-42 31l-33-3c5-37 33-52 76-52 45 0 72 20 72 64v82c-1 20 7 32 28 27v20c-31 9-61-2-59-35zM48-53c0 20 12 33 32 33 41-3 63-29 60-74-43 2-92-5-92 41" id="bp"/><path fill="#a9afb8" d="M143 0L79-87 56-68V0H24v-261h32v163l83-92h37l-77 82L181 0h-38" id="bq"/><path fill="#a9afb8" d="M100-194c63 0 86 42 84 106H49c0 40 14 67 53 68 26 1 43-12 49-29l28 8c-11 28-37 45-77 45C44 4 14-33 15-96c1-61 26-98 85-98zm52 81c6-60-76-77-97-28-3 7-6 17-6 28h103" id="br"/><path fill="#a9afb8" d="M135-143c-3-34-86-38-87 0 15 53 115 12 119 90S17 21 10-45l28-5c4 36 97 45 98 0-10-56-113-15-118-90-4-57 82-63 122-42 12 7 21 19 24 35" id="bs"/><path fill="#a9afb8" d="M106-169C34-169 62-67 57 0H25v-261h32l-1 103c12-21 28-36 61-36 89 0 53 116 60 194h-32v-121c2-32-8-49-39-48" id="bt"/><g id="s"><use transform="matrix(0.04248971193415638,0,0,0.04248971193415638,0,0)" xlink:href="#bo"/><use transform="matrix(0.04248971193415638,0,0,0.04248971193415638,5.056275720164609,0)" xlink:href="#bp"/><use transform="matrix(0.04248971193415638,0,0,0.04248971193415638,13.554218106995881,0)" xlink:href="#bq"/><use transform="matrix(0.04248971193415638,0,0,0.04248971193415638,21.20236625514403,0)" xlink:href="#br"/><use transform="matrix(0.04248971193415638,0,0,0.04248971193415638,29.7003086419753,0)" xlink:href="#bs"/><use transform="matrix(0.04248971193415638,0,0,0.04248971193415638,37.34845679012345,0)" xlink:href="#bt"/></g><path fill="#a9afb8" d="M85-194c31 0 48 13 60 33l-1-100h32l1 261h-30c-2-10 0-23-3-31C134-8 116 4 85 4 32 4 16-35 15-94c0-66 23-100 70-100zm9 24c-40 0-46 34-46 75 0 40 6 74 45 74 42 0 51-32 51-76 0-42-9-74-50-73" id="bu"/><path fill="#a9afb8" d="M179-190L93 31C79 59 56 82 12 73V49c39 6 53-20 64-50L1-190h34L92-34l54-156h33" id="bv"/><g id="t"><use transform="matrix(0.04248971193415638,0,0,0.04248971193415638,0,0)" xlink:href="#bo"/><use transform="matrix(0.04248971193415638,0,0,0.04248971193415638,5.056275720164609,0)" xlink:href="#br"/><use transform="matrix(0.04248971193415638,0,0,0.04248971193415638,13.554218106995881,0)" xlink:href="#bu"/><use transform="matrix(0.04248971193415638,0,0,0.04248971193415638,22.05216049382716,0)" xlink:href="#bu"/><use transform="matrix(0.04248971193415638,0,0,0.04248971193415638,30.550102880658436,0)" xlink:href="#bv"/></g><path fill="#a9afb8" d="M32 76v-337h29V76H32" id="bw"/><use transform="matrix(0.04248971193415638,0,0,0.04248971193415638,0,0)" xlink:href="#bw" id="u"/><path fill="#a9afb8" d="M153-248C145-148 188 4 80 4 36 3 13-21 6-62l32-5c4 25 16 42 43 43 27 0 39-20 39-49v-147H72v-28h81" id="bx"/><path fill="#a9afb8" d="M84 4C-5 8 30-112 23-190h32v120c0 31 7 50 39 49 72-2 45-101 50-169h31l1 190h-30c-1-10 1-25-2-33-11 22-28 36-60 37" id="by"/><path fill="#a9afb8" d="M117-194c89-4 53 116 60 194h-32v-121c0-31-8-49-39-48C34-167 62-67 57 0H25l-1-190h30c1 10-1 24 2 32 11-22 29-35 61-36" id="bz"/><g id="v"><use transform="matrix(0.04248971193415638,0,0,0.04248971193415638,0,0)" xlink:href="#bx"/><use transform="matrix(0.04248971193415638,0,0,0.04248971193415638,7.648148148148148,0)" xlink:href="#by"/><use transform="matrix(0.04248971193415638,0,0,0.04248971193415638,16.14609053497942,0)" xlink:href="#bz"/><use transform="matrix(0.04248971193415638,0,0,0.04248971193415638,24.644032921810698,0)" xlink:href="#br"/></g><path fill="#a9afb8" d="M27 0v-27h64v-190l-56 39v-29l58-41h29v221h61V0H27" id="bA"/><path fill="#a9afb8" d="M110-160c48 1 74 30 74 79 0 53-28 85-80 85-65 0-83-55-86-122-5-90 50-162 133-122 14 7 22 21 27 39l-31 6c-5-40-67-38-82-6-9 19-15 44-15 74 11-20 30-34 60-33zm-7 138c34 0 49-23 49-58s-16-56-50-56c-29 0-50 16-49 49 1 36 15 65 50 65" id="bB"/><path fill="#a9afb8" d="M68-38c1 34 0 65-14 84H32c9-13 17-26 17-46H33v-38h35" id="bC"/><g id="w"><use transform="matrix(0.04248971193415638,0,0,0.04248971193415638,0,0)" xlink:href="#bA"/><use transform="matrix(0.04248971193415638,0,0,0.04248971193415638,8.497942386831275,0)" xlink:href="#bB"/><use transform="matrix(0.04248971193415638,0,0,0.04248971193415638,16.99588477366255,0)" xlink:href="#bC"/></g><path fill="#a9afb8" d="M101-251c82-7 93 87 43 132L82-64C71-53 59-42 53-27h129V0H18c2-99 128-94 128-182 0-28-16-43-45-43s-46 15-49 41l-32-3c6-41 34-60 81-64" id="bD"/><path fill="#a9afb8" d="M101-251c68 0 85 55 85 127S166 4 100 4C33 4 14-52 14-124c0-73 17-127 87-127zm-1 229c47 0 54-49 54-102s-4-102-53-102c-51 0-55 48-55 102 0 53 5 102 54 102" id="bE"/><g id="x"><use transform="matrix(0.04248971193415638,0,0,0.04248971193415638,0,0)" xlink:href="#bD"/><use transform="matrix(0.04248971193415638,0,0,0.04248971193415638,8.497942386831275,0)" xlink:href="#bE"/><use transform="matrix(0.04248971193415638,0,0,0.04248971193415638,16.99588477366255,0)" xlink:href="#bD"/><use transform="matrix(0.04248971193415638,0,0,0.04248971193415638,25.493827160493822,0)" xlink:href="#bA"/></g><path fill="#333" d="M156-25L96-89v-11l60-65h29v5l-59 66 60 64v5h-30zm-82 0L15-89v-11l59-65h29v5L44-94l59 64v5H74" id="bF"/><path fill="#333" d="M126-25H97v-5l59-64-59-66v-5h29l60 65v11zm-82 0H15v-5l59-64-59-66v-5h29l59 65v11" id="bG"/><g id="y"><use transform="matrix(0.04320987654320988,0,0,0.04320987654320988,0,0)" xlink:href="#bF"/><use transform="matrix(0.04320987654320988,0,0,0.04320987654320988,8.641975308641976,0)" xlink:href="#an"/><use transform="matrix(0.04320987654320988,0,0,0.04320987654320988,17.283950617283953,0)" xlink:href="#ad"/><use transform="matrix(0.04320987654320988,0,0,0.04320987654320988,25.06172839506173,0)" xlink:href="#at"/><use transform="matrix(0.04320987654320988,0,0,0.04320987654320988,33.70370370370371,0)" xlink:href="#bG"/></g><path fill="#333" d="M186 0v-106H76V0H24v-248h52v99h110v-99h50V0h-50" id="bH"/><path fill="#333" d="M136-208V0H84v-208H4v-40h212v40h-80" id="bI"/><g id="z"><use transform="matrix(0.05,0,0,0.05,0,0)" xlink:href="#R"/><use transform="matrix(0.05,0,0,0.05,12,0)" xlink:href="#S"/><use transform="matrix(0.05,0,0,0.05,26.950000000000003,0)" xlink:href="#T"/><use transform="matrix(0.05,0,0,0.05,37.900000000000006,0)" xlink:href="#aE"/><use transform="matrix(0.05,0,0,0.05,43.85000000000001,0)" xlink:href="#W"/><use transform="matrix(0.05,0,0,0.05,54.80000000000001,0)" xlink:href="#bH"/><use transform="matrix(0.05,0,0,0.05,67.75000000000001,0)" xlink:href="#bI"/><use transform="matrix(0.05,0,0,0.05,78.70000000000002,0)" xlink:href="#S"/><use transform="matrix(0.05,0,0,0.05,93.65000000000002,0)" xlink:href="#T"/></g><g id="A"><use transform="matrix(0.05,0,0,0.05,0,0)" xlink:href="#al"/><use transform="matrix(0.05,0,0,0.05,3.95,0)" xlink:href="#ac"/><use transform="matrix(0.05,0,0,0.05,13.949999999999998,0)" xlink:href="#ae"/></g><g id="B"><use transform="matrix(0.05,0,0,0.05,0,0)" xlink:href="#aj"/><use transform="matrix(0.05,0,0,0.05,14.950000000000001,0)" xlink:href="#ag"/><use transform="matrix(0.05,0,0,0.05,24.950000000000003,0)" xlink:href="#al"/><use transform="matrix(0.05,0,0,0.05,28.900000000000002,0)" xlink:href="#ac"/><use transform="matrix(0.05,0,0,0.05,38.900000000000006,0)" xlink:href="#ay"/><use transform="matrix(0.05,0,0,0.05,44.85000000000001,0)" xlink:href="#al"/><use transform="matrix(0.05,0,0,0.05,48.80000000000001,0)" xlink:href="#ac"/><use transform="matrix(0.05,0,0,0.05,58.80000000000001,0)" xlink:href="#ae"/></g><path fill="#333" d="M68-38c1 34 0 65-14 84H32c9-13 17-26 17-46H33v-38h35" id="bJ"/><g id="C"><use transform="matrix(0.05,0,0,0.05,0,0)" xlink:href="#ag"/><use transform="matrix(0.05,0,0,0.05,10,0)" xlink:href="#ah"/><use transform="matrix(0.05,0,0,0.05,15.949999999999998,0)" xlink:href="#aS"/><use transform="matrix(0.05,0,0,0.05,25.950000000000003,0)" xlink:href="#aa"/><use transform="matrix(0.05,0,0,0.05,34.95,0)" xlink:href="#bJ"/></g><g id="D"><use transform="matrix(0.05,0,0,0.05,0,0)" xlink:href="#aa"/><use transform="matrix(0.05,0,0,0.05,9,0)" xlink:href="#af"/><use transform="matrix(0.05,0,0,0.05,19,0)" xlink:href="#ag"/><use transform="matrix(0.05,0,0,0.05,29,0)" xlink:href="#ah"/><use transform="matrix(0.05,0,0,0.05,34.95,0)" xlink:href="#ai"/></g><path fill="#333" d="M108 0H70L1-190h34L89-25l56-165h34" id="bK"/><path fill="#333" d="M26 75v-336h71v23H56V52h41v23H26" id="bL"/><path fill="#333" d="M3 75V52h41v-290H3v-23h71V75H3" id="bM"/><g id="E"><use transform="matrix(0.05,0,0,0.05,0,0)" xlink:href="#ag"/><use transform="matrix(0.05,0,0,0.05,10,0)" xlink:href="#ah"/><use transform="matrix(0.05,0,0,0.05,15.949999999999998,0)" xlink:href="#aS"/><use transform="matrix(0.05,0,0,0.05,25.950000000000003,0)" xlink:href="#bK"/><use transform="matrix(0.05,0,0,0.05,34.95,0)" xlink:href="#bL"/><use transform="matrix(0.05,0,0,0.05,39.95,0)" xlink:href="#bM"/><use transform="matrix(0.05,0,0,0.05,44.95,0)" xlink:href="#az"/></g><g id="F"><use transform="matrix(0.05,0,0,0.05,0,0)" xlink:href="#bH"/><use transform="matrix(0.05,0,0,0.05,12.950000000000001,0)" xlink:href="#bI"/><use transform="matrix(0.05,0,0,0.05,23.900000000000002,0)" xlink:href="#S"/><use transform="matrix(0.05,0,0,0.05,38.85,0)" xlink:href="#T"/></g><g id="G"><use transform="matrix(0.05,0,0,0.05,0,0)" xlink:href="#U"/><use transform="matrix(0.05,0,0,0.05,12,0)" xlink:href="#V"/><use transform="matrix(0.05,0,0,0.05,19,0)" xlink:href="#W"/><use transform="matrix(0.05,0,0,0.05,29.950000000000003,0)" xlink:href="#X"/><use transform="matrix(0.05,0,0,0.05,39.95,0)" xlink:href="#Y"/><use transform="matrix(0.05,0,0,0.05,49.95,0)" xlink:href="#Z"/><use transform="matrix(0.05,0,0,0.05,59.95,0)" xlink:href="#Z"/><use transform="matrix(0.05,0,0,0.05,69.95,0)" xlink:href="#W"/><use transform="matrix(0.05,0,0,0.05,80.9,0)" xlink:href="#V"/></g><g id="H"><use transform="matrix(0.05,0,0,0.05,0,0)" xlink:href="#aa"/><use transform="matrix(0.05,0,0,0.05,9,0)" xlink:href="#ab"/><use transform="matrix(0.05,0,0,0.05,19,0)" xlink:href="#ac"/><use transform="matrix(0.05,0,0,0.05,29,0)" xlink:href="#ad"/><use transform="matrix(0.05,0,0,0.05,38,0)" xlink:href="#ae"/></g><path fill="#333" d="M179-190L93 31C79 59 56 82 12 73V49c39 6 53-20 64-50L1-190h34L92-34l54-156h33" id="bN"/><g id="I"><use transform="matrix(0.05,0,0,0.05,0,0)" xlink:href="#aj"/><use transform="matrix(0.05,0,0,0.05,14.950000000000001,0)" xlink:href="#ak"/><use transform="matrix(0.05,0,0,0.05,24.950000000000003,0)" xlink:href="#aQ"/><use transform="matrix(0.05,0,0,0.05,36.95,0)" xlink:href="#ae"/><use transform="matrix(0.05,0,0,0.05,41.95,0)" xlink:href="#bN"/><use transform="matrix(0.05,0,0,0.05,50.95,0)" xlink:href="#as"/><use transform="matrix(0.05,0,0,0.05,54.900000000000006,0)" xlink:href="#at"/><use transform="matrix(0.05,0,0,0.05,64.9,0)" xlink:href="#aQ"/><use transform="matrix(0.05,0,0,0.05,76.9,0)" xlink:href="#af"/><use transform="matrix(0.05,0,0,0.05,86.9,0)" xlink:href="#at"/><use transform="matrix(0.05,0,0,0.05,96.9,0)" xlink:href="#at"/><use transform="matrix(0.05,0,0,0.05,106.9,0)" xlink:href="#ae"/><use transform="matrix(0.05,0,0,0.05,111.9,0)" xlink:href="#aM"/><use transform="matrix(0.05,0,0,0.05,122.85000000000001,0)" xlink:href="#al"/><use transform="matrix(0.05,0,0,0.05,126.80000000000001,0)" xlink:href="#as"/><use transform="matrix(0.05,0,0,0.05,130.75,0)" xlink:href="#at"/><use transform="matrix(0.05,0,0,0.05,140.75,0)" xlink:href="#au"/><use transform="matrix(0.05,0,0,0.05,153.7,0)" xlink:href="#ag"/><use transform="matrix(0.05,0,0,0.05,163.7,0)" xlink:href="#aj"/><use transform="matrix(0.05,0,0,0.05,178.64999999999998,0)" xlink:href="#at"/><use transform="matrix(0.05,0,0,0.05,188.64999999999998,0)" xlink:href="#av"/></g><path fill="#333" d="M140-251c81 0 123 46 123 126C263-46 219 4 140 4 59 4 17-45 17-125s42-126 123-126zm0 227c63 0 89-41 89-101s-29-99-89-99c-61 0-89 39-89 99S79-25 140-24" id="bO"/><g id="J"><use transform="matrix(0.05,0,0,0.05,0,0)" xlink:href="#aj"/><use transform="matrix(0.05,0,0,0.05,14.950000000000001,0)" xlink:href="#ak"/><use transform="matrix(0.05,0,0,0.05,24.950000000000003,0)" xlink:href="#bO"/><use transform="matrix(0.05,0,0,0.05,38.95,0)" xlink:href="#an"/><use transform="matrix(0.05,0,0,0.05,48.95,0)" xlink:href="#ae"/><use transform="matrix(0.05,0,0,0.05,53.95,0)" xlink:href="#am"/><use transform="matrix(0.05,0,0,0.05,63.95,0)" xlink:href="#an"/><use transform="matrix(0.05,0,0,0.05,73.95,0)" xlink:href="#ae"/><use transform="matrix(0.05,0,0,0.05,78.95,0)" xlink:href="#aB"/><use transform="matrix(0.05,0,0,0.05,91.9,0)" xlink:href="#aC"/><use transform="matrix(0.05,0,0,0.05,102.85000000000001,0)" xlink:href="#ap"/><use transform="matrix(0.05,0,0,0.05,117.80000000000001,0)" xlink:href="#aq"/><use transform="matrix(0.05,0,0,0.05,127.80000000000001,0)" xlink:href="#ar"/><use transform="matrix(0.05,0,0,0.05,132.8,0)" xlink:href="#al"/><use transform="matrix(0.05,0,0,0.05,136.75,0)" xlink:href="#as"/><use transform="matrix(0.05,0,0,0.05,140.7,0)" xlink:href="#at"/><use transform="matrix(0.05,0,0,0.05,150.7,0)" xlink:href="#au"/><use transform="matrix(0.05,0,0,0.05,163.64999999999998,0)" xlink:href="#ag"/><use transform="matrix(0.05,0,0,0.05,173.64999999999998,0)" xlink:href="#aj"/><use transform="matrix(0.05,0,0,0.05,188.59999999999997,0)" xlink:href="#at"/><use transform="matrix(0.05,0,0,0.05,198.59999999999997,0)" xlink:href="#av"/></g><g id="K"><use transform="matrix(0.05,0,0,0.05,0,0)" xlink:href="#ad"/><use transform="matrix(0.05,0,0,0.05,9,0)" xlink:href="#ae"/><use transform="matrix(0.05,0,0,0.05,14,0)" xlink:href="#ah"/><use transform="matrix(0.05,0,0,0.05,19.95,0)" xlink:href="#an"/><use transform="matrix(0.05,0,0,0.05,29.950000000000003,0)" xlink:href="#aa"/><use transform="matrix(0.05,0,0,0.05,38.95,0)" xlink:href="#ae"/></g><g id="L"><use transform="matrix(0.05,0,0,0.05,0,0)" xlink:href="#aB"/><use transform="matrix(0.05,0,0,0.05,12.950000000000001,0)" xlink:href="#aC"/><use transform="matrix(0.05,0,0,0.05,23.900000000000002,0)" xlink:href="#ap"/><use transform="matrix(0.05,0,0,0.05,38.85,0)" xlink:href="#aq"/><use transform="matrix(0.05,0,0,0.05,47.5,0)" xlink:href="#aC"/><use transform="matrix(0.05,0,0,0.05,56.45,0)" xlink:href="#ag"/><use transform="matrix(0.05,0,0,0.05,66.45,0)" xlink:href="#aR"/><use transform="matrix(0.05,0,0,0.05,76.45,0)" xlink:href="#as"/><use transform="matrix(0.05,0,0,0.05,80.4,0)" xlink:href="#at"/><use transform="matrix(0.05,0,0,0.05,90.4,0)" xlink:href="#aB"/><use transform="matrix(0.05,0,0,0.05,103.35000000000001,0)" xlink:href="#at"/><use transform="matrix(0.05,0,0,0.05,113.35000000000001,0)" xlink:href="#ag"/><use transform="matrix(0.05,0,0,0.05,123.35000000000001,0)" xlink:href="#ax"/><use transform="matrix(0.05,0,0,0.05,133.35000000000002,0)" xlink:href="#at"/><use transform="matrix(0.05,0,0,0.05,143.35000000000002,0)" xlink:href="#ah"/></g><g id="M"><use transform="matrix(0.05,0,0,0.05,0,0)" xlink:href="#aB"/><use transform="matrix(0.05,0,0,0.05,12.950000000000001,0)" xlink:href="#aC"/><use transform="matrix(0.05,0,0,0.05,23.900000000000002,0)" xlink:href="#ap"/><use transform="matrix(0.05,0,0,0.05,38.85,0)" xlink:href="#aq"/><use transform="matrix(0.05,0,0,0.05,47.5,0)" xlink:href="#aC"/><use transform="matrix(0.05,0,0,0.05,56.45,0)" xlink:href="#ag"/><use transform="matrix(0.05,0,0,0.05,66.45,0)" xlink:href="#aR"/><use transform="matrix(0.05,0,0,0.05,76.45,0)" xlink:href="#as"/><use transform="matrix(0.05,0,0,0.05,80.4,0)" xlink:href="#at"/><use transform="matrix(0.05,0,0,0.05,90.4,0)" xlink:href="#aw"/><use transform="matrix(0.05,0,0,0.05,103.35000000000001,0)" xlink:href="#ag"/><use transform="matrix(0.05,0,0,0.05,113.35000000000001,0)" xlink:href="#ae"/><use transform="matrix(0.05,0,0,0.05,118.35000000000001,0)" xlink:href="#ag"/></g><path fill="#333" d="M143 4C61 4 22-44 18-125c-5-107 100-154 193-111 17 8 29 25 37 43l-32 9c-13-25-37-40-76-40-61 0-88 39-88 99 0 61 29 100 91 101 35 0 62-11 79-27v-45h-74v-28h105v86C228-13 192 4 143 4" id="bP"/><g id="N"><use transform="matrix(0.05,0,0,0.05,0,0)" xlink:href="#bP"/><use transform="matrix(0.05,0,0,0.05,14,0)" xlink:href="#at"/><use transform="matrix(0.05,0,0,0.05,24,0)" xlink:href="#ae"/><use transform="matrix(0.05,0,0,0.05,29,0)" xlink:href="#aB"/><use transform="matrix(0.05,0,0,0.05,41.95,0)" xlink:href="#aC"/><use transform="matrix(0.05,0,0,0.05,52.900000000000006,0)" xlink:href="#ap"/><use transform="matrix(0.05,0,0,0.05,67.85000000000001,0)" xlink:href="#aq"/><use transform="matrix(0.05,0,0,0.05,77.85000000000001,0)" xlink:href="#aQ"/><use transform="matrix(0.05,0,0,0.05,89.85000000000001,0)" xlink:href="#ae"/><use transform="matrix(0.05,0,0,0.05,94.85000000000001,0)" xlink:href="#bN"/><use transform="matrix(0.05,0,0,0.05,103.85000000000001,0)" xlink:href="#as"/><use transform="matrix(0.05,0,0,0.05,107.80000000000001,0)" xlink:href="#al"/><use transform="matrix(0.05,0,0,0.05,111.75,0)" xlink:href="#ac"/><use transform="matrix(0.05,0,0,0.05,121.75,0)" xlink:href="#aS"/><use transform="matrix(0.05,0,0,0.05,131.75,0)" xlink:href="#aQ"/><use transform="matrix(0.05,0,0,0.05,143.75,0)" xlink:href="#af"/><use transform="matrix(0.05,0,0,0.05,153.75,0)" xlink:href="#at"/><use transform="matrix(0.05,0,0,0.05,163.75,0)" xlink:href="#at"/><use transform="matrix(0.05,0,0,0.05,173.75,0)" xlink:href="#ae"/><use transform="matrix(0.05,0,0,0.05,178.75,0)" xlink:href="#aC"/><use transform="matrix(0.05,0,0,0.05,187.7,0)" xlink:href="#ab"/><use transform="matrix(0.05,0,0,0.05,197.7,0)" xlink:href="#aQ"/><use transform="matrix(0.05,0,0,0.05,209.69999999999996,0)" xlink:href="#ae"/><use transform="matrix(0.05,0,0,0.05,214.69999999999996,0)" xlink:href="#ah"/><use transform="matrix(0.05,0,0,0.05,220.64999999999998,0)" xlink:href="#al"/><use transform="matrix(0.05,0,0,0.05,224.59999999999997,0)" xlink:href="#ac"/><use transform="matrix(0.05,0,0,0.05,234.59999999999997,0)" xlink:href="#aS"/><use transform="matrix(0.05,0,0,0.05,244.59999999999997,0)" xlink:href="#ay"/><use transform="matrix(0.05,0,0,0.05,250.54999999999995,0)" xlink:href="#az"/></g><g id="O"><use transform="matrix(0.05,0,0,0.05,0,0)" xlink:href="#bP"/><use transform="matrix(0.05,0,0,0.05,14,0)" xlink:href="#at"/><use transform="matrix(0.05,0,0,0.05,24,0)" xlink:href="#ac"/><use transform="matrix(0.05,0,0,0.05,34,0)" xlink:href="#at"/><use transform="matrix(0.05,0,0,0.05,44,0)" xlink:href="#ah"/><use transform="matrix(0.05,0,0,0.05,49.95,0)" xlink:href="#ag"/><use transform="matrix(0.05,0,0,0.05,59.95,0)" xlink:href="#ae"/><use transform="matrix(0.05,0,0,0.05,64.95,0)" xlink:href="#at"/><use transform="matrix(0.05,0,0,0.05,74.95,0)" xlink:href="#bO"/><use transform="matrix(0.05,0,0,0.05,88.95,0)" xlink:href="#an"/><use transform="matrix(0.05,0,0,0.05,98.95,0)" xlink:href="#ae"/><use transform="matrix(0.05,0,0,0.05,103.95,0)" xlink:href="#am"/><use transform="matrix(0.05,0,0,0.05,113.95,0)" xlink:href="#an"/><use transform="matrix(0.05,0,0,0.05,123.95,0)" xlink:href="#ae"/><use transform="matrix(0.05,0,0,0.05,128.95,0)" xlink:href="#aB"/><use transform="matrix(0.05,0,0,0.05,141.89999999999998,0)" xlink:href="#aC"/><use transform="matrix(0.05,0,0,0.05,152.84999999999997,0)" xlink:href="#ap"/><use transform="matrix(0.05,0,0,0.05,167.79999999999995,0)" xlink:href="#aq"/><use transform="matrix(0.05,0,0,0.05,177.79999999999995,0)" xlink:href="#ay"/><use transform="matrix(0.05,0,0,0.05,183.74999999999994,0)" xlink:href="#az"/></g><g id="P"><use transform="matrix(0.05,0,0,0.05,0,0)" xlink:href="#bI"/><use transform="matrix(0.05,0,0,0.05,9.600000000000001,0)" xlink:href="#Y"/><use transform="matrix(0.05,0,0,0.05,19.6,0)" xlink:href="#Z"/><use transform="matrix(0.05,0,0,0.05,29.6,0)" xlink:href="#aE"/><use transform="matrix(0.05,0,0,0.05,35.550000000000004,0)" xlink:href="#Z"/></g><g id="Q"><use transform="matrix(0.05,0,0,0.05,0,0)" xlink:href="#aC"/><use transform="matrix(0.05,0,0,0.05,10.950000000000001,0)" xlink:href="#aD"/><use transform="matrix(0.05,0,0,0.05,22.950000000000003,0)" xlink:href="#aQ"/><use transform="matrix(0.05,0,0,0.05,34.95,0)" xlink:href="#aC"/><use transform="matrix(0.05,0,0,0.05,45.900000000000006,0)" xlink:href="#ak"/><use transform="matrix(0.05,0,0,0.05,55.900000000000006,0)" xlink:href="#ap"/><use transform="matrix(0.05,0,0,0.05,70.85000000000001,0)" xlink:href="#aD"/><use transform="matrix(0.05,0,0,0.05,82.85000000000001,0)" xlink:href="#aC"/><use transform="matrix(0.05,0,0,0.05,93.80000000000001,0)" xlink:href="#aB"/><use transform="matrix(0.05,0,0,0.05,106.75,0)" xlink:href="#bO"/><use transform="matrix(0.05,0,0,0.05,120.75,0)" xlink:href="#aw"/><use transform="matrix(0.05,0,0,0.05,133.70000000000002,0)" xlink:href="#ay"/><use transform="matrix(0.05,0,0,0.05,139.65,0)" xlink:href="#az"/></g></defs></g></svg>