<svg xmlns="http://www.w3.org/2000/svg" xmlns:xlink="http://www.w3.org/1999/xlink" xmlns:lucid="lucid" width="1117.33" height="1589"><g transform="translate(-232.66785980474378 -50.99999999994924)" lucid:page-tab-id="0_0"><path d="M0 0h1912.44v1760H0z" fill="#fff"/><path d="M488 260c17.67 0 32 17.9 32 40s-14.33 40-32 40h-96c-17.67 0-32-17.9-32-40s14.33-40 32-40z" stroke="#000" stroke-opacity="0" stroke-width="2" fill="#d2d3d5"/><use xlink:href="#a" transform="matrix(1,0,0,1,365,265) translate(56.025 38.6)"/><path d="M600 248c0-4.42 3.58-8 8-8h144c4.42 0 8 3.58 8 8v104c0 4.42-3.58 8-8 8H608c-4.42 0-8-3.58-8-8z" stroke="#000" stroke-opacity="0" stroke-width="2" fill="#d85656"/><use xlink:href="#b" transform="matrix(1,0,0,1,605,245) translate(20.39999999999999 47.8)"/><use xlink:href="#c" transform="matrix(1,0,0,1,605,245) translate(65.39999999999999 47.8)"/><use xlink:href="#d" transform="matrix(1,0,0,1,605,245) translate(106.7 47.8)"/><use xlink:href="#e" transform="matrix(1,0,0,1,605,245) translate(17.949999999999996 69.4)"/><use xlink:href="#f" transform="matrix(1,0,0,1,605,245) translate(65.9 69.4)"/><use xlink:href="#g" transform="matrix(1,0,0,1,605,245) translate(104.15 69.4)"/><path d="M520.5 300h63.12" stroke="#333" fill="none"/><path d="M520.5 300.5h-.53l.03-.5-.02-.5h.53z" fill="#333"/><path d="M598.38 300l-14.26 4.64v-9.28z" stroke="#333" fill="#333"/><path d="M252.67 79c0-4.42 3.58-8 8-8h836.75c4.42 0 8 3.58 8 8v25.16c0 4.4-3.58 8-8 8H260.67c-4.42 0-8-3.6-8-8z" stroke="#000" stroke-opacity="0" stroke-width="2" fill="#fff" fill-opacity="0"/><use xlink:href="#h" transform="matrix(1,0,0,1,256.6678598047438,74.99999999994924) translate(284.464938271605 23.657777777777778)"/><use xlink:href="#i" transform="matrix(1,0,0,1,256.6678598047438,74.99999999994924) translate(443.61925925925925 23.657777777777778)"/><path d="M462.85 110.8h437.9M462.87 110.8h-1.02M900.73 110.8h1.03" stroke="#a9afb8" stroke-width="2" fill="none"/><path d="M252.67 120.16c0-4.42 3.58-8 8-8h837.7c4.42 0 8 3.58 8 8V123c0 4.42-3.58 8-8 8h-837.7c-4.42 0-8-3.58-8-8z" stroke="#000" stroke-opacity="0" stroke-width="2" fill="#fff" fill-opacity="0"/><use xlink:href="#j" transform="matrix(1,0,0,1,256.66785980474424,116.15522395684805) translate(323.2512037037037 14.917037037037037)"/><use xlink:href="#k" transform="matrix(1,0,0,1,256.66785980474424,116.15522395684805) translate(373.34657407407406 14.917037037037037)"/><use xlink:href="#l" transform="matrix(1,0,0,1,256.66785980474424,116.15522395684805) translate(420.04276748971193 14.917037037037037)"/><use xlink:href="#m" transform="matrix(1,0,0,1,256.66785980474424,116.15522395684805) translate(432.49225308641974 14.917037037037037)"/><use xlink:href="#n" transform="matrix(1,0,0,1,256.66785980474424,116.15522395684805) translate(469.88319958847734 14.917037037037037)"/><use xlink:href="#o" transform="matrix(1,0,0,1,256.66785980474424,116.15522395684805) translate(495.37702674897116 14.917037037037037)"/><path d="M600 468c0-4.42 3.58-8 8-8h144c4.42 0 8 3.58 8 8v104c0 4.42-3.58 8-8 8H608c-4.42 0-8-3.58-8-8z" stroke="#000" stroke-opacity="0" stroke-width="2" fill="#d85656"/><use xlink:href="#p" transform="matrix(1,0,0,1,605,465) translate(38.88148148148148 33.666666666666664)"/><use xlink:href="#q" transform="matrix(1,0,0,1,605,465) translate(50.733333333333334 33.666666666666664)"/><use xlink:href="#r" transform="matrix(1,0,0,1,605,465) translate(14.407407407407405 59.26666666666667)"/><use xlink:href="#s" transform="matrix(1,0,0,1,605,465) translate(92.57037037037037 59.26666666666667)"/><use xlink:href="#t" transform="matrix(1,0,0,1,605,465) translate(30.614814814814807 84.86666666666667)"/><path d="M680 580.5v63.12" stroke="#333" fill="none"/><path d="M680.5 580.5h-1v-.5h1z" fill="#333"/><path d="M680 658.38l-4.64-14.26h9.28z" stroke="#333" fill="#333"/><path d="M600 668c0-4.42 3.58-8 8-8h144c4.42 0 8 3.58 8 8v104c0 4.42-3.58 8-8 8H608c-4.42 0-8-3.58-8-8z" stroke="#000" stroke-opacity="0" stroke-width="2" fill="#d85656"/><use xlink:href="#u" transform="matrix(1,0,0,1,605,665) translate(20.0074074074074 33.666666666666664)"/><use xlink:href="#v" transform="matrix(1,0,0,1,605,665) translate(89.81481481481481 33.666666666666664)"/><use xlink:href="#w" transform="matrix(1,0,0,1,605,665) translate(32.45185185185184 59.26666666666667)"/><use xlink:href="#x" transform="matrix(1,0,0,1,605,665) translate(89.22222222222223 59.26666666666667)"/><use xlink:href="#y" transform="matrix(1,0,0,1,605,665) translate(41.251851851851846 84.86666666666667)"/><path d="M600 888c0-4.42 3.58-8 8-8h144c4.42 0 8 3.58 8 8v104c0 4.42-3.58 8-8 8H608c-4.42 0-8-3.58-8-8z" stroke="#000" stroke-opacity="0" stroke-width="2" fill="#d85656"/><use xlink:href="#u" transform="matrix(1,0,0,1,605,885) translate(20.57037037037037 33.666666666666664)"/><use xlink:href="#z" transform="matrix(1,0,0,1,605,885) translate(90.37777777777778 33.666666666666664)"/><use xlink:href="#A" transform="matrix(1,0,0,1,605,885) translate(1.1333333333333258 59.26666666666667)"/><use xlink:href="#B" transform="matrix(1,0,0,1,605,885) translate(47.237037037037034 59.26666666666667)"/><use xlink:href="#C" transform="matrix(1,0,0,1,605,885) translate(80.3037037037037 59.26666666666667)"/><use xlink:href="#D" transform="matrix(1,0,0,1,605,885) translate(104.00740740740741 59.26666666666667)"/><use xlink:href="#E" transform="matrix(1,0,0,1,605,885) translate(54.25925925925925 84.86666666666667)"/><path d="M680 780.5v83.12" stroke="#333" fill="none"/><path d="M680.5 780.5h-1v-.5h1z" fill="#333"/><path d="M680 878.38l-4.64-14.26h9.28z" stroke="#333" fill="#333"/><path d="M600 1108c0-4.42 3.58-8 8-8h144c4.42 0 8 3.58 8 8v124c0 4.42-3.58 8-8 8H608c-4.42 0-8-3.58-8-8z" stroke="#000" stroke-opacity="0" stroke-width="2" fill="#d85656"/><use xlink:href="#F" transform="matrix(1,0,0,1,605,1105) translate(27.08888888888889 43.666666666666664)"/><use xlink:href="#v" transform="matrix(1,0,0,1,605,1105) translate(82.73333333333333 43.666666666666664)"/><use xlink:href="#G" transform="matrix(1,0,0,1,605,1105) translate(6.318518518518516 69.26666666666668)"/><use xlink:href="#H" transform="matrix(1,0,0,1,605,1105) translate(78.49629629629631 69.26666666666668)"/><use xlink:href="#I" transform="matrix(1,0,0,1,605,1105) translate(125.90370370370371 69.26666666666668)"/><use xlink:href="#A" transform="matrix(1,0,0,1,605,1105) translate(38.37777777777777 94.86666666666667)"/><use xlink:href="#J" transform="matrix(1,0,0,1,605,1105) translate(84.48148148148148 94.86666666666667)"/><path d="M600 1328c0-4.42 3.58-8 8-8h144c4.42 0 8 3.58 8 8v104c0 4.42-3.58 8-8 8H608c-4.42 0-8-3.58-8-8z" stroke="#000" stroke-opacity="0" stroke-width="2" fill="#d85656"/><use xlink:href="#K" transform="matrix(1,0,0,1,605,1325) translate(27.355555555555554 33.666666666666664)"/><use xlink:href="#v" transform="matrix(1,0,0,1,605,1325) translate(82.46666666666667 33.666666666666664)"/><use xlink:href="#w" transform="matrix(1,0,0,1,605,1325) translate(14.022222222222211 59.26666666666667)"/><use xlink:href="#H" transform="matrix(1,0,0,1,605,1325) translate(70.7925925925926 59.26666666666667)"/><use xlink:href="#I" transform="matrix(1,0,0,1,605,1325) translate(118.2 59.26666666666667)"/><use xlink:href="#A" transform="matrix(1,0,0,1,605,1325) translate(38.37777777777777 84.86666666666667)"/><use xlink:href="#J" transform="matrix(1,0,0,1,605,1325) translate(84.48148148148148 84.86666666666667)"/><path d="M953.6 884.8c3.53-2.65 9.27-2.65 12.8 0l67.2 50.4c3.53 2.65 3.53 6.95 0 9.6l-67.2 50.4c-3.53 2.65-9.27 2.65-12.8 0l-67.2-50.4c-3.53-2.65-3.53-6.95 0-9.6z" stroke="#c54242" stroke-width="4" fill="#fff"/><use xlink:href="#L" transform="matrix(1,0,0,1,885,885) translate(17.099999999999994 47.8)"/><use xlink:href="#M" transform="matrix(1,0,0,1,885,885) translate(41.099999999999994 47.8)"/><use xlink:href="#N" transform="matrix(1,0,0,1,885,885) translate(69 47.8)"/><use xlink:href="#O" transform="matrix(1,0,0,1,885,885) translate(46 69.4)"/><path d="M859.05 1050.04h-169l-3.05.5-2.6 1.34-2.06 2.06-1.35 2.6-.5 3.04v24.04h-1v-24.12l.53-3.28 1.5-2.88 2.27-2.28 2.88-1.5 3.28-.52h169.1zm101.45-10.46l-.53 3.28-1.5 2.9-2.27 2.26-2.88 1.5-3.28.52h-65.06v-1h64.98l3.04-.5 2.6-1.33 2.06-2.05 1.35-2.6.5-3.05v-39.9h1zM960.5 999.1v.5h-1v-.52zM680 1098.38l-4.64-14.26h9.28z" fill="#333"/><path d="M680 1100l-5.32-16.38h10.64zm-3.95-15.38l3.95 12.14 3.95-12.14z" fill="#333"/><g><use xlink:href="#P" transform="matrix(1,0,0,1,859.0544307056763,1040.2098602509013) translate(0 12.444444444444446)"/></g><path d="M1038.64 940h34.98" stroke="#333" fill="none"/><path d="M1038.66 940.5h-.54l.04-1h.5z" fill="#333"/><path d="M1088.38 940l-14.26 4.64v-9.28z" stroke="#333" fill="#333"/><g><use xlink:href="#Q" transform="matrix(1,0,0,1,1045.9667869208133,917.3333333333333) translate(0 12.444444444444446)"/></g><path d="M760.5 940h104.97" stroke="#333" fill="none"/><path d="M760.5 940.5h-.5v-1h.5z" fill="#333"/><path d="M880.24 940l-14.27 4.64v-9.28z" stroke="#333" fill="#333"/><path d="M1218 900c17.67 0 32 17.9 32 40s-14.33 40-32 40h-96c-17.67 0-32-17.9-32-40s14.33-40 32-40z" stroke="#000" stroke-opacity="0" stroke-width="2" fill="#d2d3d5"/><g><use xlink:href="#R" transform="matrix(1,0,0,1,1095,905) translate(48.05 38.6)"/></g><path d="M1033.6 244.8c3.53-2.65 9.27-2.65 12.8 0l67.2 50.4c3.53 2.65 3.53 6.95 0 9.6l-67.2 50.4c-3.53 2.65-9.27 2.65-12.8 0l-67.2-50.4c-3.53-2.65-3.53-6.95 0-9.6z" stroke="#c54242" stroke-width="4" fill="#fff"/><g><use xlink:href="#S" transform="matrix(1,0,0,1,965,245) translate(31.099999999999994 47.8)"/><use xlink:href="#T" transform="matrix(1,0,0,1,965,245) translate(64.94999999999999 47.8)"/><use xlink:href="#U" transform="matrix(1,0,0,1,965,245) translate(26.549999999999997 69.4)"/></g><path d="M909.98 410.04H690.04l-3.04.5-2.6 1.34-2.06 2.06-1.35 2.6-.5 3.04v24.04h-1V419.5l.53-3.28 1.5-2.88 2.27-2.28 2.88-1.5 3.28-.52h220.02zm130.52-10.46l-.53 3.28-1.5 2.9-2.27 2.26-2.88 1.5-3.28.52H935.9v-1h94.06l3.04-.5 2.6-1.33 2.06-2.05 1.35-2.6.5-3.05v-39.9h1zM1040.5 359.1v.5h-1v-.52zM680 458.38l-4.64-14.26h9.28z" fill="#333"/><path d="M680 460l-5.32-16.38h10.64zm-3.95-15.38l3.95 12.14 3.95-12.14z" fill="#333"/><g><use xlink:href="#P" transform="matrix(1,0,0,1,909.9791951491346,400.2098602509013) translate(0 12.444444444444446)"/></g><path d="M1118.64 300h34.98" stroke="#333" fill="none"/><path d="M1118.66 300.5h-.54l.04-1h.5z" fill="#333"/><path d="M1168.38 300l-14.26 4.64v-9.28z" stroke="#333" fill="#333"/><g><use xlink:href="#Q" transform="matrix(1,0,0,1,1125.9667869208133,277.33333333333337) translate(0 12.444444444444446)"/></g><path d="M760.5 300h184.97" stroke="#333" fill="none"/><path d="M760.5 300.5h-.5v-1h.5z" fill="#333"/><path d="M960.24 300l-14.27 4.64v-9.28z" stroke="#333" fill="#333"/><path d="M1298 260c17.67 0 32 17.9 32 40s-14.33 40-32 40h-96c-17.67 0-32-17.9-32-40s14.33-40 32-40z" stroke="#000" stroke-opacity="0" stroke-width="2" fill="#d2d3d5"/><g><use xlink:href="#R" transform="matrix(1,0,0,1,1175,265) translate(48.05 38.6)"/></g><path d="M680 1240.5v63.12" stroke="#333" fill="none"/><path d="M680.5 1240.5h-1v-.5h1z" fill="#333"/><path d="M680 1318.38l-4.64-14.26h9.28z" stroke="#333" fill="#333"/><path d="M599.04 1508c0-4.42 3.58-8 8-8h144c4.42 0 8 3.58 8 8v104c0 4.42-3.58 8-8 8h-144c-4.42 0-8-3.58-8-8z" stroke="#000" stroke-opacity="0" stroke-width="2" fill="#d85656"/><g><use xlink:href="#V" transform="matrix(1,0,0,1,604.0426140388013,1505) translate(31.26666666666666 59.266666666666666)"/><use xlink:href="#J" transform="matrix(1,0,0,1,604.0426140388013,1505) translate(91.5925925925926 59.266666666666666)"/></g><path d="M680 1440.5v43.12" stroke="#333" fill="none"/><path d="M680.5 1440.5h-1v-.5h1z" fill="#333"/><path d="M680 1498.38l-4.64-14.26h9.28z" stroke="#333" fill="#333"/><path d="M968 1520c17.67 0 32 17.9 32 40s-14.33 40-32 40h-96c-17.67 0-32-17.9-32-40s14.33-40 32-40z" stroke="#000" stroke-opacity="0" stroke-width="2" fill="#d2d3d5"/><g><use xlink:href="#W" transform="matrix(1,0,0,1,845,1525) translate(56.5 38.6)"/></g><path d="M759.54 1560h64.08" stroke="#333" fill="none"/><path d="M759.56 1560.5h-.52v-1h.52z" fill="#333"/><path d="M838.38 1560l-14.26 4.64v-9.28z" stroke="#333" fill="#333"/><defs><path fill="#3d4752" d="M185-189c-5-48-123-54-124 2 14 75 158 14 163 119 3 78-121 87-175 55-17-10-28-26-33-46l33-7c5 56 141 63 141-1 0-78-155-14-162-118-5-82 145-84 179-34 5 7 8 16 11 25" id="X"/><path fill="#3d4752" d="M59-47c-2 24 18 29 38 22v24C64 9 27 4 27-40v-127H5v-23h24l9-43h21v43h35v23H59v120" id="Y"/><path fill="#3d4752" d="M141-36C126-15 110 5 73 4 37 3 15-17 15-53c-1-64 63-63 125-63 3-35-9-54-41-54-24 1-41 7-42 31l-33-3c5-37 33-52 76-52 45 0 72 20 72 64v82c-1 20 7 32 28 27v20c-31 9-61-2-59-35zM48-53c0 20 12 33 32 33 41-3 63-29 60-74-43 2-92-5-92 41" id="Z"/><path fill="#3d4752" d="M114-163C36-179 61-72 57 0H25l-1-190h30c1 12-1 29 2 39 6-27 23-49 58-41v29" id="aa"/><g id="a"><use transform="matrix(0.05,0,0,0.05,0,0)" xlink:href="#X"/><use transform="matrix(0.05,0,0,0.05,12,0)" xlink:href="#Y"/><use transform="matrix(0.05,0,0,0.05,17,0)" xlink:href="#Z"/><use transform="matrix(0.05,0,0,0.05,27,0)" xlink:href="#aa"/><use transform="matrix(0.05,0,0,0.05,32.95,0)" xlink:href="#Y"/></g><path fill="#fff" d="M30 0v-248h33v221h125V0H30" id="ab"/><path fill="#fff" d="M100-194c62-1 85 37 85 99 1 63-27 99-86 99S16-35 15-95c0-66 28-99 85-99zM99-20c44 1 53-31 53-75 0-43-8-75-51-75s-53 32-53 75 10 74 51 75" id="ac"/><path fill="#fff" d="M141-36C126-15 110 5 73 4 37 3 15-17 15-53c-1-64 63-63 125-63 3-35-9-54-41-54-24 1-41 7-42 31l-33-3c5-37 33-52 76-52 45 0 72 20 72 64v82c-1 20 7 32 28 27v20c-31 9-61-2-59-35zM48-53c0 20 12 33 32 33 41-3 63-29 60-74-43 2-92-5-92 41" id="ad"/><path fill="#fff" d="M85-194c31 0 48 13 60 33l-1-100h32l1 261h-30c-2-10 0-23-3-31C134-8 116 4 85 4 32 4 16-35 15-94c0-66 23-100 70-100zm9 24c-40 0-46 34-46 75 0 40 6 74 45 74 42 0 51-32 51-76 0-42-9-74-50-73" id="ae"/><g id="b"><use transform="matrix(0.05,0,0,0.05,0,0)" xlink:href="#ab"/><use transform="matrix(0.05,0,0,0.05,10,0)" xlink:href="#ac"/><use transform="matrix(0.05,0,0,0.05,20,0)" xlink:href="#ad"/><use transform="matrix(0.05,0,0,0.05,30,0)" xlink:href="#ae"/></g><path fill="#fff" d="M195 0l-74-108L45 0H8l94-129-87-119h37l69 98 67-98h37l-84 118L233 0h-38" id="af"/><path fill="#fff" d="M240 0l2-218c-23 76-54 145-80 218h-23L58-218 59 0H30v-248h44l77 211c21-75 51-140 76-211h43V0h-30" id="ag"/><g id="c"><use transform="matrix(0.05,0,0,0.05,0,0)" xlink:href="#af"/><use transform="matrix(0.05,0,0,0.05,12,0)" xlink:href="#ag"/><use transform="matrix(0.05,0,0,0.05,26.950000000000003,0)" xlink:href="#ab"/></g><path fill="#fff" d="M101-234c-31-9-42 10-38 44h38v23H63V0H32v-167H5v-23h27c-7-52 17-82 69-68v24" id="ah"/><path fill="#fff" d="M24-231v-30h32v30H24zM24 0v-190h32V0H24" id="ai"/><path fill="#fff" d="M24 0v-261h32V0H24" id="aj"/><path fill="#fff" d="M100-194c63 0 86 42 84 106H49c0 40 14 67 53 68 26 1 43-12 49-29l28 8c-11 28-37 45-77 45C44 4 14-33 15-96c1-61 26-98 85-98zm52 81c6-60-76-77-97-28-3 7-6 17-6 28h103" id="ak"/><g id="d"><use transform="matrix(0.05,0,0,0.05,0,0)" xlink:href="#ah"/><use transform="matrix(0.05,0,0,0.05,5,0)" xlink:href="#ai"/><use transform="matrix(0.05,0,0,0.05,8.95,0)" xlink:href="#aj"/><use transform="matrix(0.05,0,0,0.05,12.899999999999999,0)" xlink:href="#ak"/></g><path fill="#fff" d="M84 4C-5 8 30-112 23-190h32v120c0 31 7 50 39 49 72-2 45-101 50-169h31l1 190h-30c-1-10 1-25-2-33-11 22-28 36-60 37" id="al"/><path fill="#fff" d="M135-143c-3-34-86-38-87 0 15 53 115 12 119 90S17 21 10-45l28-5c4 36 97 45 98 0-10-56-113-15-118-90-4-57 82-63 122-42 12 7 21 19 24 35" id="am"/><path fill="#fff" d="M117-194c89-4 53 116 60 194h-32v-121c0-31-8-49-39-48C34-167 62-67 57 0H25l-1-190h30c1 10-1 24 2 32 11-22 29-35 61-36" id="an"/><path fill="#fff" d="M177-190C167-65 218 103 67 71c-23-6-38-20-44-43l32-5c15 47 100 32 89-28v-30C133-14 115 1 83 1 29 1 15-40 15-95c0-56 16-97 71-98 29-1 48 16 59 35 1-10 0-23 2-32h30zM94-22c36 0 50-32 50-73 0-42-14-75-50-75-39 0-46 34-46 75s6 73 46 73" id="ao"/><g id="e"><use transform="matrix(0.05,0,0,0.05,0,0)" xlink:href="#al"/><use transform="matrix(0.05,0,0,0.05,10,0)" xlink:href="#am"/><use transform="matrix(0.05,0,0,0.05,19,0)" xlink:href="#ai"/><use transform="matrix(0.05,0,0,0.05,22.95,0)" xlink:href="#an"/><use transform="matrix(0.05,0,0,0.05,32.95,0)" xlink:href="#ao"/></g><path fill="#fff" d="M127-220V0H93v-220H8v-28h204v28h-85" id="ap"/><path fill="#fff" d="M179-190L93 31C79 59 56 82 12 73V49c39 6 53-20 64-50L1-190h34L92-34l54-156h33" id="aq"/><g id="f"><use transform="matrix(0.05,0,0,0.05,0,0)" xlink:href="#ap"/><use transform="matrix(0.05,0,0,0.05,10.3,0)" xlink:href="#ai"/><use transform="matrix(0.05,0,0,0.05,14.25,0)" xlink:href="#an"/><use transform="matrix(0.05,0,0,0.05,24.25,0)" xlink:href="#aq"/></g><path fill="#fff" d="M141 0L90-78 38 0H4l68-98-65-92h35l48 74 47-74h35l-64 92 68 98h-35" id="ar"/><path fill="#fff" d="M210-169c-67 3-38 105-44 169h-31v-121c0-29-5-50-35-48C34-165 62-65 56 0H25l-1-190h30c1 10-1 24 2 32 10-44 99-50 107 0 11-21 27-35 58-36 85-2 47 119 55 194h-31v-121c0-29-5-49-35-48" id="as"/><g id="g"><use transform="matrix(0.05,0,0,0.05,0,0)" xlink:href="#ar"/><use transform="matrix(0.05,0,0,0.05,9,0)" xlink:href="#as"/><use transform="matrix(0.05,0,0,0.05,23.950000000000003,0)" xlink:href="#aj"/></g><path fill="#a9afb8" d="M182 0l-62-99L58 0H3l86-130-79-118h55l55 88 55-88h55l-75 118L237 0h-55" id="at"/><path fill="#a9afb8" d="M230 0l2-204L168 0h-37L68-204 70 0H24v-248h70l56 185 57-185h69V0h-46" id="au"/><path fill="#a9afb8" d="M24 0v-248h52v208h133V0H24" id="av"/><path fill="#a9afb8" d="M115-3C79 11 28 4 28-45v-112H4v-33h27l15-45h31v45h36v33H77v99c-1 23 16 31 38 25v30" id="aw"/><path fill="#a9afb8" d="M110-194c64 0 96 36 96 99 0 64-35 99-97 99-61 0-95-36-95-99 0-62 34-99 96-99zm-1 164c35 0 45-28 45-65 0-40-10-65-43-65-34 0-45 26-45 65 0 36 10 65 43 65" id="ax"/><path fill="#a9afb8" d="M186 0v-106H76V0H24v-248h52v99h110v-99h50V0h-50" id="ay"/><path fill="#a9afb8" d="M136-208V0H84v-208H4v-40h212v40h-80" id="az"/><g id="h"><use transform="matrix(0.0728395061728395,0,0,0.0728395061728395,0,0)" xlink:href="#at"/><use transform="matrix(0.0728395061728395,0,0,0.0728395061728395,17.48148148148148,0)" xlink:href="#au"/><use transform="matrix(0.0728395061728395,0,0,0.0728395061728395,39.26049382716049,0)" xlink:href="#av"/><use transform="matrix(0.0728395061728395,0,0,0.0728395061728395,55.21234567901234,0)" xlink:href="#aw"/><use transform="matrix(0.0728395061728395,0,0,0.0728395061728395,63.88024691358024,0)" xlink:href="#ax"/><use transform="matrix(0.0728395061728395,0,0,0.0728395061728395,79.8320987654321,0)" xlink:href="#ay"/><use transform="matrix(0.0728395061728395,0,0,0.0728395061728395,98.69753086419752,0)" xlink:href="#az"/><use transform="matrix(0.0728395061728395,0,0,0.0728395061728395,114.64938271604937,0)" xlink:href="#au"/><use transform="matrix(0.0728395061728395,0,0,0.0728395061728395,136.4283950617284,0)" xlink:href="#av"/></g><path fill="#a9afb8" d="M67-125c0 53 21 87 73 88 37 1 54-22 65-47l45 17C233-25 199 4 140 4 58 4 20-42 15-125 8-235 124-281 211-232c18 10 29 29 36 50l-46 12c-8-25-30-41-62-41-52 0-71 34-72 86" id="aA"/><path fill="#a9afb8" d="M135-194c87-1 58 113 63 194h-50c-7-57 23-157-34-157-59 0-34 97-39 157H25l-1-190h47c2 12-1 28 3 38 12-26 28-41 61-42" id="aB"/><path fill="#a9afb8" d="M128 0H69L1-190h53L99-40l48-150h52" id="aC"/><path fill="#a9afb8" d="M185-48c-13 30-37 53-82 52C43 2 14-33 14-96s30-98 90-98c62 0 83 45 84 108H66c0 31 8 55 39 56 18 0 30-7 34-22zm-45-69c5-46-57-63-70-21-2 6-4 13-4 21h74" id="aD"/><path fill="#a9afb8" d="M135-150c-39-12-60 13-60 57V0H25l-1-190h47c2 13-1 29 3 40 6-28 27-53 61-41v41" id="aE"/><g id="i"><use transform="matrix(0.0728395061728395,0,0,0.0728395061728395,0,0)" xlink:href="#aA"/><use transform="matrix(0.0728395061728395,0,0,0.0728395061728395,18.86543209876543,0)" xlink:href="#ax"/><use transform="matrix(0.0728395061728395,0,0,0.0728395061728395,34.81728395061728,0)" xlink:href="#aB"/><use transform="matrix(0.0728395061728395,0,0,0.0728395061728395,50.76913580246913,0)" xlink:href="#aC"/><use transform="matrix(0.0728395061728395,0,0,0.0728395061728395,65.33703703703704,0)" xlink:href="#aD"/><use transform="matrix(0.0728395061728395,0,0,0.0728395061728395,79.90493827160493,0)" xlink:href="#aE"/><use transform="matrix(0.0728395061728395,0,0,0.0728395061728395,90.10246913580247,0)" xlink:href="#aw"/><use transform="matrix(0.0728395061728395,0,0,0.0728395061728395,98.77037037037037,0)" xlink:href="#aD"/><use transform="matrix(0.0728395061728395,0,0,0.0728395061728395,113.33827160493827,0)" xlink:href="#aE"/></g><path fill="#a9afb8" d="M114-163C36-179 61-72 57 0H25l-1-190h30c1 12-1 29 2 39 6-27 23-49 58-41v29" id="aF"/><path fill="#a9afb8" d="M141-36C126-15 110 5 73 4 37 3 15-17 15-53c-1-64 63-63 125-63 3-35-9-54-41-54-24 1-41 7-42 31l-33-3c5-37 33-52 76-52 45 0 72 20 72 64v82c-1 20 7 32 28 27v20c-31 9-61-2-59-35zM48-53c0 20 12 33 32 33 41-3 63-29 60-74-43 2-92-5-92 41" id="aG"/><path fill="#a9afb8" d="M143 0L79-87 56-68V0H24v-261h32v163l83-92h37l-77 82L181 0h-38" id="aH"/><path fill="#a9afb8" d="M100-194c63 0 86 42 84 106H49c0 40 14 67 53 68 26 1 43-12 49-29l28 8c-11 28-37 45-77 45C44 4 14-33 15-96c1-61 26-98 85-98zm52 81c6-60-76-77-97-28-3 7-6 17-6 28h103" id="aI"/><path fill="#a9afb8" d="M135-143c-3-34-86-38-87 0 15 53 115 12 119 90S17 21 10-45l28-5c4 36 97 45 98 0-10-56-113-15-118-90-4-57 82-63 122-42 12 7 21 19 24 35" id="aJ"/><path fill="#a9afb8" d="M106-169C34-169 62-67 57 0H25v-261h32l-1 103c12-21 28-36 61-36 89 0 53 116 60 194h-32v-121c2-32-8-49-39-48" id="aK"/><g id="j"><use transform="matrix(0.04248971193415638,0,0,0.04248971193415638,0,0)" xlink:href="#aF"/><use transform="matrix(0.04248971193415638,0,0,0.04248971193415638,5.056275720164609,0)" xlink:href="#aG"/><use transform="matrix(0.04248971193415638,0,0,0.04248971193415638,13.554218106995881,0)" xlink:href="#aH"/><use transform="matrix(0.04248971193415638,0,0,0.04248971193415638,21.20236625514403,0)" xlink:href="#aI"/><use transform="matrix(0.04248971193415638,0,0,0.04248971193415638,29.7003086419753,0)" xlink:href="#aJ"/><use transform="matrix(0.04248971193415638,0,0,0.04248971193415638,37.34845679012345,0)" xlink:href="#aK"/></g><path fill="#a9afb8" d="M85-194c31 0 48 13 60 33l-1-100h32l1 261h-30c-2-10 0-23-3-31C134-8 116 4 85 4 32 4 16-35 15-94c0-66 23-100 70-100zm9 24c-40 0-46 34-46 75 0 40 6 74 45 74 42 0 51-32 51-76 0-42-9-74-50-73" id="aL"/><path fill="#a9afb8" d="M179-190L93 31C79 59 56 82 12 73V49c39 6 53-20 64-50L1-190h34L92-34l54-156h33" id="aM"/><g id="k"><use transform="matrix(0.04248971193415638,0,0,0.04248971193415638,0,0)" xlink:href="#aF"/><use transform="matrix(0.04248971193415638,0,0,0.04248971193415638,5.056275720164609,0)" xlink:href="#aI"/><use transform="matrix(0.04248971193415638,0,0,0.04248971193415638,13.554218106995881,0)" xlink:href="#aL"/><use transform="matrix(0.04248971193415638,0,0,0.04248971193415638,22.05216049382716,0)" xlink:href="#aL"/><use transform="matrix(0.04248971193415638,0,0,0.04248971193415638,30.550102880658436,0)" xlink:href="#aM"/></g><path fill="#a9afb8" d="M32 76v-337h29V76H32" id="aN"/><use transform="matrix(0.04248971193415638,0,0,0.04248971193415638,0,0)" xlink:href="#aN" id="l"/><path fill="#a9afb8" d="M153-248C145-148 188 4 80 4 36 3 13-21 6-62l32-5c4 25 16 42 43 43 27 0 39-20 39-49v-147H72v-28h81" id="aO"/><path fill="#a9afb8" d="M84 4C-5 8 30-112 23-190h32v120c0 31 7 50 39 49 72-2 45-101 50-169h31l1 190h-30c-1-10 1-25-2-33-11 22-28 36-60 37" id="aP"/><path fill="#a9afb8" d="M117-194c89-4 53 116 60 194h-32v-121c0-31-8-49-39-48C34-167 62-67 57 0H25l-1-190h30c1 10-1 24 2 32 11-22 29-35 61-36" id="aQ"/><g id="m"><use transform="matrix(0.04248971193415638,0,0,0.04248971193415638,0,0)" xlink:href="#aO"/><use transform="matrix(0.04248971193415638,0,0,0.04248971193415638,7.648148148148148,0)" xlink:href="#aP"/><use transform="matrix(0.04248971193415638,0,0,0.04248971193415638,16.14609053497942,0)" xlink:href="#aQ"/><use transform="matrix(0.04248971193415638,0,0,0.04248971193415638,24.644032921810698,0)" xlink:href="#aI"/></g><path fill="#a9afb8" d="M27 0v-27h64v-190l-56 39v-29l58-41h29v221h61V0H27" id="aR"/><path fill="#a9afb8" d="M54-142c48-35 137-8 131 61C196 18 31 33 14-55l32-4c7 23 22 37 52 37 35-1 51-22 54-58 4-55-73-65-99-34H22l8-134h141v27H59" id="aS"/><path fill="#a9afb8" d="M68-38c1 34 0 65-14 84H32c9-13 17-26 17-46H33v-38h35" id="aT"/><g id="n"><use transform="matrix(0.04248971193415638,0,0,0.04248971193415638,0,0)" xlink:href="#aR"/><use transform="matrix(0.04248971193415638,0,0,0.04248971193415638,8.497942386831275,0)" xlink:href="#aS"/><use transform="matrix(0.04248971193415638,0,0,0.04248971193415638,16.99588477366255,0)" xlink:href="#aT"/></g><path fill="#a9afb8" d="M101-251c82-7 93 87 43 132L82-64C71-53 59-42 53-27h129V0H18c2-99 128-94 128-182 0-28-16-43-45-43s-46 15-49 41l-32-3c6-41 34-60 81-64" id="aU"/><path fill="#a9afb8" d="M101-251c68 0 85 55 85 127S166 4 100 4C33 4 14-52 14-124c0-73 17-127 87-127zm-1 229c47 0 54-49 54-102s-4-102-53-102c-51 0-55 48-55 102 0 53 5 102 54 102" id="aV"/><g id="o"><use transform="matrix(0.04248971193415638,0,0,0.04248971193415638,0,0)" xlink:href="#aU"/><use transform="matrix(0.04248971193415638,0,0,0.04248971193415638,8.497942386831275,0)" xlink:href="#aV"/><use transform="matrix(0.04248971193415638,0,0,0.04248971193415638,16.99588477366255,0)" xlink:href="#aU"/><use transform="matrix(0.04248971193415638,0,0,0.04248971193415638,25.493827160493822,0)" xlink:href="#aR"/></g><path d="M33 0v-248h34V0H33" id="aW"/><path d="M59-47c-2 24 18 29 38 22v24C64 9 27 4 27-40v-127H5v-23h24l9-43h21v43h35v23H59v120" id="aX"/><path d="M100-194c63 0 86 42 84 106H49c0 40 14 67 53 68 26 1 43-12 49-29l28 8c-11 28-37 45-77 45C44 4 14-33 15-96c1-61 26-98 85-98zm52 81c6-60-76-77-97-28-3 7-6 17-6 28h103" id="aY"/><path d="M114-163C36-179 61-72 57 0H25l-1-190h30c1 12-1 29 2 39 6-27 23-49 58-41v29" id="aZ"/><path d="M141-36C126-15 110 5 73 4 37 3 15-17 15-53c-1-64 63-63 125-63 3-35-9-54-41-54-24 1-41 7-42 31l-33-3c5-37 33-52 76-52 45 0 72 20 72 64v82c-1 20 7 32 28 27v20c-31 9-61-2-59-35zM48-53c0 20 12 33 32 33 41-3 63-29 60-74-43 2-92-5-92 41" id="ba"/><g id="q"><use transform="matrix(0.05925925925925927,0,0,0.05925925925925927,0,0)" xlink:href="#aW"/><use transform="matrix(0.05925925925925927,0,0,0.05925925925925927,5.9259259259259265,0)" xlink:href="#aX"/><use transform="matrix(0.05925925925925927,0,0,0.05925925925925927,11.851851851851853,0)" xlink:href="#aY"/><use transform="matrix(0.05925925925925927,0,0,0.05925925925925927,23.703703703703706,0)" xlink:href="#aZ"/><use transform="matrix(0.05925925925925927,0,0,0.05925925925925927,30.75555555555556,0)" xlink:href="#ba"/><use transform="matrix(0.05925925925925927,0,0,0.05925925925925927,42.607407407407415,0)" xlink:href="#aX"/><use transform="matrix(0.05925925925925927,0,0,0.05925925925925927,48.53333333333334,0)" xlink:href="#aY"/></g><path d="M106-169C34-169 62-67 57 0H25v-261h32l-1 103c12-21 28-36 61-36 89 0 53 116 60 194h-32v-121c2-32-8-49-39-48" id="bb"/><path d="M100-194c62-1 85 37 85 99 1 63-27 99-86 99S16-35 15-95c0-66 28-99 85-99zM99-20c44 1 53-31 53-75 0-43-8-75-51-75s-53 32-53 75 10 74 51 75" id="bc"/><path d="M84 4C-5 8 30-112 23-190h32v120c0 31 7 50 39 49 72-2 45-101 50-169h31l1 190h-30c-1-10 1-25-2-33-11 22-28 36-60 37" id="bd"/><path d="M177-190C167-65 218 103 67 71c-23-6-38-20-44-43l32-5c15 47 100 32 89-28v-30C133-14 115 1 83 1 29 1 15-40 15-95c0-56 16-97 71-98 29-1 48 16 59 35 1-10 0-23 2-32h30zM94-22c36 0 50-32 50-73 0-42-14-75-50-75-39 0-46 34-46 75s6 73 46 73" id="be"/><g id="r"><use transform="matrix(0.05925925925925927,0,0,0.05925925925925927,0,0)" xlink:href="#aX"/><use transform="matrix(0.05925925925925927,0,0,0.05925925925925927,5.9259259259259265,0)" xlink:href="#bb"/><use transform="matrix(0.05925925925925927,0,0,0.05925925925925927,17.77777777777778,0)" xlink:href="#aZ"/><use transform="matrix(0.05925925925925927,0,0,0.05925925925925927,24.829629629629633,0)" xlink:href="#bc"/><use transform="matrix(0.05925925925925927,0,0,0.05925925925925927,36.681481481481484,0)" xlink:href="#bd"/><use transform="matrix(0.05925925925925927,0,0,0.05925925925925927,48.53333333333334,0)" xlink:href="#be"/><use transform="matrix(0.05925925925925927,0,0,0.05925925925925927,60.38518518518519,0)" xlink:href="#bb"/></g><path d="M195 0l-74-108L45 0H8l94-129-87-119h37l69 98 67-98h37l-84 118L233 0h-38" id="bf"/><path d="M240 0l2-218c-23 76-54 145-80 218h-23L58-218 59 0H30v-248h44l77 211c21-75 51-140 76-211h43V0h-30" id="bg"/><path d="M30 0v-248h33v221h125V0H30" id="bh"/><g id="s"><use transform="matrix(0.05925925925925927,0,0,0.05925925925925927,0,0)" xlink:href="#bf"/><use transform="matrix(0.05925925925925927,0,0,0.05925925925925927,14.222222222222225,0)" xlink:href="#bg"/><use transform="matrix(0.05925925925925927,0,0,0.05925925925925927,31.940740740740747,0)" xlink:href="#bh"/></g><path d="M30 0v-248h187v28H63v79h144v27H63v87h162V0H30" id="bi"/><path d="M24 0v-261h32V0H24" id="bj"/><path d="M210-169c-67 3-38 105-44 169h-31v-121c0-29-5-50-35-48C34-165 62-65 56 0H25l-1-190h30c1 10-1 24 2 32 10-44 99-50 107 0 11-21 27-35 58-36 85-2 47 119 55 194h-31v-121c0-29-5-49-35-48" id="bk"/><path d="M117-194c89-4 53 116 60 194h-32v-121c0-31-8-49-39-48C34-167 62-67 57 0H25l-1-190h30c1 10-1 24 2 32 11-22 29-35 61-36" id="bl"/><path d="M135-143c-3-34-86-38-87 0 15 53 115 12 119 90S17 21 10-45l28-5c4 36 97 45 98 0-10-56-113-15-118-90-4-57 82-63 122-42 12 7 21 19 24 35" id="bm"/><g id="t"><use transform="matrix(0.05925925925925927,0,0,0.05925925925925927,0,0)" xlink:href="#bi"/><use transform="matrix(0.05925925925925927,0,0,0.05925925925925927,14.222222222222225,0)" xlink:href="#bj"/><use transform="matrix(0.05925925925925927,0,0,0.05925925925925927,18.903703703703705,0)" xlink:href="#aY"/><use transform="matrix(0.05925925925925927,0,0,0.05925925925925927,30.75555555555556,0)" xlink:href="#bk"/><use transform="matrix(0.05925925925925927,0,0,0.05925925925925927,48.47407407407408,0)" xlink:href="#aY"/><use transform="matrix(0.05925925925925927,0,0,0.05925925925925927,60.32592592592594,0)" xlink:href="#bl"/><use transform="matrix(0.05925925925925927,0,0,0.05925925925925927,72.17777777777779,0)" xlink:href="#aX"/><use transform="matrix(0.05925925925925927,0,0,0.05925925925925927,78.10370370370372,0)" xlink:href="#bm"/></g><path d="M212-179c-10-28-35-45-73-45-59 0-87 40-87 99 0 60 29 101 89 101 43 0 62-24 78-52l27 14C228-24 195 4 139 4 59 4 22-46 18-125c-6-104 99-153 187-111 19 9 31 26 39 46" id="bn"/><g id="u"><use transform="matrix(0.05925925925925927,0,0,0.05925925925925927,0,0)" xlink:href="#bn"/><use transform="matrix(0.05925925925925927,0,0,0.05925925925925927,15.34814814814815,0)" xlink:href="#aZ"/><use transform="matrix(0.05925925925925927,0,0,0.05925925925925927,22.400000000000002,0)" xlink:href="#aY"/><use transform="matrix(0.05925925925925927,0,0,0.05925925925925927,34.25185185185185,0)" xlink:href="#ba"/><use transform="matrix(0.05925925925925927,0,0,0.05925925925925927,46.10370370370371,0)" xlink:href="#aX"/><use transform="matrix(0.05925925925925927,0,0,0.05925925925925927,52.02962962962963,0)" xlink:href="#aY"/></g><g id="v"><use transform="matrix(0.05925925925925927,0,0,0.05925925925925927,0,0)" xlink:href="#bb"/><use transform="matrix(0.05925925925925927,0,0,0.05925925925925927,11.851851851851853,0)" xlink:href="#aX"/><use transform="matrix(0.05925925925925927,0,0,0.05925925925925927,17.77777777777778,0)" xlink:href="#bk"/><use transform="matrix(0.05925925925925927,0,0,0.05925925925925927,35.4962962962963,0)" xlink:href="#bj"/></g><path d="M127-220V0H93v-220H8v-28h204v28h-85" id="bo"/><path d="M115-194c53 0 69 39 70 98 0 66-23 100-70 100C84 3 66-7 56-30L54 0H23l1-261h32v101c10-23 28-34 59-34zm-8 174c40 0 45-34 45-75 0-40-5-75-45-74-42 0-51 32-51 76 0 43 10 73 51 73" id="bp"/><g id="w"><use transform="matrix(0.05925925925925927,0,0,0.05925925925925927,0,0)" xlink:href="#bo"/><use transform="matrix(0.05925925925925927,0,0,0.05925925925925927,10.60740740740741,0)" xlink:href="#ba"/><use transform="matrix(0.05925925925925927,0,0,0.05925925925925927,22.459259259259262,0)" xlink:href="#bp"/><use transform="matrix(0.05925925925925927,0,0,0.05925925925925927,34.31111111111112,0)" xlink:href="#bj"/><use transform="matrix(0.05925925925925927,0,0,0.05925925925925927,38.9925925925926,0)" xlink:href="#aY"/></g><path d="M30-248c118-7 216 8 213 122C240-48 200 0 122 0H30v-248zM63-27c89 8 146-16 146-99s-60-101-146-95v194" id="bq"/><g id="x"><use transform="matrix(0.05925925925925927,0,0,0.05925925925925927,0,0)" xlink:href="#bo"/><use transform="matrix(0.05925925925925927,0,0,0.05925925925925927,12.97777777777778,0)" xlink:href="#bq"/></g><path d="M24-231v-30h32v30H24zM-9 49c24 4 33-6 33-30v-209h32V24c2 40-23 58-65 49V49" id="br"/><path d="M96-169c-40 0-48 33-48 73s9 75 48 75c24 0 41-14 43-38l32 2c-6 37-31 61-74 61-59 0-76-41-82-99-10-93 101-131 147-64 4 7 5 14 7 22l-32 3c-4-21-16-35-41-35" id="bs"/><g id="y"><use transform="matrix(0.05925925925925927,0,0,0.05925925925925927,0,0)" xlink:href="#bc"/><use transform="matrix(0.05925925925925927,0,0,0.05925925925925927,11.851851851851853,0)" xlink:href="#bp"/><use transform="matrix(0.05925925925925927,0,0,0.05925925925925927,23.703703703703706,0)" xlink:href="#br"/><use transform="matrix(0.05925925925925927,0,0,0.05925925925925927,28.385185185185186,0)" xlink:href="#aY"/><use transform="matrix(0.05925925925925927,0,0,0.05925925925925927,40.23703703703704,0)" xlink:href="#bs"/><use transform="matrix(0.05925925925925927,0,0,0.05925925925925927,50.90370370370371,0)" xlink:href="#aX"/><use transform="matrix(0.05925925925925927,0,0,0.05925925925925927,56.829629629629636,0)" xlink:href="#bm"/></g><path d="M206 0h-36l-40-164L89 0H53L-1-190h32L70-26l43-164h34l41 164 42-164h31" id="bt"/><g id="z"><use transform="matrix(0.05925925925925927,0,0,0.05925925925925927,0,0)" xlink:href="#bl"/><use transform="matrix(0.05925925925925927,0,0,0.05925925925925927,11.851851851851853,0)" xlink:href="#aY"/><use transform="matrix(0.05925925925925927,0,0,0.05925925925925927,23.703703703703706,0)" xlink:href="#bt"/></g><g id="A"><use transform="matrix(0.05925925925925927,0,0,0.05925925925925927,0,0)" xlink:href="#bb"/><use transform="matrix(0.05925925925925927,0,0,0.05925925925925927,11.851851851851853,0)" xlink:href="#aX"/><use transform="matrix(0.05925925925925927,0,0,0.05925925925925927,17.77777777777778,0)" xlink:href="#bk"/><use transform="matrix(0.05925925925925927,0,0,0.05925925925925927,35.4962962962963,0)" xlink:href="#bj"/></g><path d="M101-234c-31-9-42 10-38 44h38v23H63V0H32v-167H5v-23h27c-7-52 17-82 69-68v24" id="bu"/><path d="M24-231v-30h32v30H24zM24 0v-190h32V0H24" id="bv"/><g id="B"><use transform="matrix(0.05925925925925927,0,0,0.05925925925925927,0,0)" xlink:href="#bu"/><use transform="matrix(0.05925925925925927,0,0,0.05925925925925927,5.9259259259259265,0)" xlink:href="#bv"/><use transform="matrix(0.05925925925925927,0,0,0.05925925925925927,10.607407407407408,0)" xlink:href="#bj"/><use transform="matrix(0.05925925925925927,0,0,0.05925925925925927,15.288888888888891,0)" xlink:href="#aY"/></g><g id="C"><use transform="matrix(0.05925925925925927,0,0,0.05925925925925927,0,0)" xlink:href="#aX"/><use transform="matrix(0.05925925925925927,0,0,0.05925925925925927,5.9259259259259265,0)" xlink:href="#bc"/></g><g id="D"><use transform="matrix(0.05925925925925927,0,0,0.05925925925925927,0,0)" xlink:href="#bt"/><use transform="matrix(0.05925925925925927,0,0,0.05925925925925927,15.34814814814815,0)" xlink:href="#aZ"/><use transform="matrix(0.05925925925925927,0,0,0.05925925925925927,22.400000000000002,0)" xlink:href="#bv"/><use transform="matrix(0.05925925925925927,0,0,0.05925925925925927,27.081481481481482,0)" xlink:href="#aX"/><use transform="matrix(0.05925925925925927,0,0,0.05925925925925927,33.007407407407406,0)" xlink:href="#aY"/></g><path d="M85-194c31 0 48 13 60 33l-1-100h32l1 261h-30c-2-10 0-23-3-31C134-8 116 4 85 4 32 4 16-35 15-94c0-66 23-100 70-100zm9 24c-40 0-46 34-46 75 0 40 6 74 45 74 42 0 51-32 51-76 0-42-9-74-50-73" id="bw"/><g id="E"><use transform="matrix(0.05925925925925927,0,0,0.05925925925925927,0,0)" xlink:href="#bw"/><use transform="matrix(0.05925925925925927,0,0,0.05925925925925927,11.851851851851853,0)" xlink:href="#ba"/><use transform="matrix(0.05925925925925927,0,0,0.05925925925925927,23.703703703703706,0)" xlink:href="#aX"/><use transform="matrix(0.05925925925925927,0,0,0.05925925925925927,29.629629629629633,0)" xlink:href="#ba"/></g><path d="M115-194c55 1 70 41 70 98S169 2 115 4C84 4 66-9 55-30l1 105H24l-1-265h31l2 30c10-21 28-34 59-34zm-8 174c40 0 45-34 45-75s-6-73-45-74c-42 0-51 32-51 76 0 43 10 73 51 73" id="bx"/><path d="M179-190L93 31C79 59 56 82 12 73V49c39 6 53-20 64-50L1-190h34L92-34l54-156h33" id="by"/><g id="F"><use transform="matrix(0.05925925925925927,0,0,0.05925925925925927,0,0)" xlink:href="#bn"/><use transform="matrix(0.05925925925925927,0,0,0.05925925925925927,15.34814814814815,0)" xlink:href="#bc"/><use transform="matrix(0.05925925925925927,0,0,0.05925925925925927,27.200000000000003,0)" xlink:href="#bx"/><use transform="matrix(0.05925925925925927,0,0,0.05925925925925927,39.05185185185186,0)" xlink:href="#by"/></g><g id="G"><use transform="matrix(0.05925925925925927,0,0,0.05925925925925927,0,0)" xlink:href="#bm"/><use transform="matrix(0.05925925925925927,0,0,0.05925925925925927,10.666666666666668,0)" xlink:href="#aX"/><use transform="matrix(0.05925925925925927,0,0,0.05925925925925927,16.592592592592595,0)" xlink:href="#by"/><use transform="matrix(0.05925925925925927,0,0,0.05925925925925927,27.259259259259263,0)" xlink:href="#bj"/><use transform="matrix(0.05925925925925927,0,0,0.05925925925925927,31.940740740740747,0)" xlink:href="#bv"/><use transform="matrix(0.05925925925925927,0,0,0.05925925925925927,36.62222222222223,0)" xlink:href="#bl"/><use transform="matrix(0.05925925925925927,0,0,0.05925925925925927,48.47407407407408,0)" xlink:href="#be"/></g><g id="H"><use transform="matrix(0.05925925925925927,0,0,0.05925925925925927,0,0)" xlink:href="#bw"/><use transform="matrix(0.05925925925925927,0,0,0.05925925925925927,11.851851851851853,0)" xlink:href="#ba"/><use transform="matrix(0.05925925925925927,0,0,0.05925925925925927,23.703703703703706,0)" xlink:href="#aX"/><use transform="matrix(0.05925925925925927,0,0,0.05925925925925927,29.629629629629633,0)" xlink:href="#ba"/></g><g id="I"><use transform="matrix(0.05925925925925927,0,0,0.05925925925925927,0,0)" xlink:href="#aX"/><use transform="matrix(0.05925925925925927,0,0,0.05925925925925927,5.9259259259259265,0)" xlink:href="#bc"/></g><g id="J"><use transform="matrix(0.05925925925925927,0,0,0.05925925925925927,0,0)" xlink:href="#bu"/><use transform="matrix(0.05925925925925927,0,0,0.05925925925925927,5.9259259259259265,0)" xlink:href="#bv"/><use transform="matrix(0.05925925925925927,0,0,0.05925925925925927,10.607407407407408,0)" xlink:href="#bj"/><use transform="matrix(0.05925925925925927,0,0,0.05925925925925927,15.288888888888891,0)" xlink:href="#aY"/></g><path d="M266 0h-40l-56-210L115 0H75L2-248h35L96-30l15-64 43-154h32l59 218 59-218h35" id="bz"/><g id="K"><use transform="matrix(0.05925925925925927,0,0,0.05925925925925927,0,0)" xlink:href="#bz"/><use transform="matrix(0.05925925925925927,0,0,0.05925925925925927,19.674074074074078,0)" xlink:href="#aZ"/><use transform="matrix(0.05925925925925927,0,0,0.05925925925925927,26.72592592592593,0)" xlink:href="#bv"/><use transform="matrix(0.05925925925925927,0,0,0.05925925925925927,31.407407407407412,0)" xlink:href="#aX"/><use transform="matrix(0.05925925925925927,0,0,0.05925925925925927,37.333333333333336,0)" xlink:href="#aY"/></g><path fill="#333" d="M101-234c-31-9-42 10-38 44h38v23H63V0H32v-167H5v-23h27c-7-52 17-82 69-68v24" id="bA"/><path fill="#333" d="M33 0v-248h34V0H33" id="bB"/><path fill="#333" d="M135-143c-3-34-86-38-87 0 15 53 115 12 119 90S17 21 10-45l28-5c4 36 97 45 98 0-10-56-113-15-118-90-4-57 82-63 122-42 12 7 21 19 24 35" id="bC"/><g id="L"><use transform="matrix(0.05,0,0,0.05,0,0)" xlink:href="#bA"/><use transform="matrix(0.05,0,0,0.05,5,0)" xlink:href="#bB"/><use transform="matrix(0.05,0,0,0.05,10,0)" xlink:href="#bC"/></g><path fill="#333" d="M24-231v-30h32v30H24zM24 0v-190h32V0H24" id="bD"/><path fill="#333" d="M24 0v-261h32V0H24" id="bE"/><path fill="#333" d="M100-194c63 0 86 42 84 106H49c0 40 14 67 53 68 26 1 43-12 49-29l28 8c-11 28-37 45-77 45C44 4 14-33 15-96c1-61 26-98 85-98zm52 81c6-60-76-77-97-28-3 7-6 17-6 28h103" id="bF"/><g id="M"><use transform="matrix(0.05,0,0,0.05,0,0)" xlink:href="#bA"/><use transform="matrix(0.05,0,0,0.05,5,0)" xlink:href="#bD"/><use transform="matrix(0.05,0,0,0.05,8.95,0)" xlink:href="#bE"/><use transform="matrix(0.05,0,0,0.05,12.899999999999999,0)" xlink:href="#bF"/></g><path fill="#333" d="M96-169c-40 0-48 33-48 73s9 75 48 75c24 0 41-14 43-38l32 2c-6 37-31 61-74 61-59 0-76-41-82-99-10-93 101-131 147-64 4 7 5 14 7 22l-32 3c-4-21-16-35-41-35" id="bG"/><path fill="#333" d="M114-163C36-179 61-72 57 0H25l-1-190h30c1 12-1 29 2 39 6-27 23-49 58-41v29" id="bH"/><path fill="#333" d="M141-36C126-15 110 5 73 4 37 3 15-17 15-53c-1-64 63-63 125-63 3-35-9-54-41-54-24 1-41 7-42 31l-33-3c5-37 33-52 76-52 45 0 72 20 72 64v82c-1 20 7 32 28 27v20c-31 9-61-2-59-35zM48-53c0 20 12 33 32 33 41-3 63-29 60-74-43 2-92-5-92 41" id="bI"/><path fill="#333" d="M59-47c-2 24 18 29 38 22v24C64 9 27 4 27-40v-127H5v-23h24l9-43h21v43h35v23H59v120" id="bJ"/><path fill="#333" d="M100-194c62-1 85 37 85 99 1 63-27 99-86 99S16-35 15-95c0-66 28-99 85-99zM99-20c44 1 53-31 53-75 0-43-8-75-51-75s-53 32-53 75 10 74 51 75" id="bK"/><path fill="#333" d="M117-194c89-4 53 116 60 194h-32v-121c0-31-8-49-39-48C34-167 62-67 57 0H25l-1-190h30c1 10-1 24 2 32 11-22 29-35 61-36" id="bL"/><g id="N"><use transform="matrix(0.05,0,0,0.05,0,0)" xlink:href="#bG"/><use transform="matrix(0.05,0,0,0.05,9,0)" xlink:href="#bH"/><use transform="matrix(0.05,0,0,0.05,14.949999999999998,0)" xlink:href="#bF"/><use transform="matrix(0.05,0,0,0.05,24.95,0)" xlink:href="#bI"/><use transform="matrix(0.05,0,0,0.05,34.95,0)" xlink:href="#bJ"/><use transform="matrix(0.05,0,0,0.05,39.95,0)" xlink:href="#bD"/><use transform="matrix(0.05,0,0,0.05,43.900000000000006,0)" xlink:href="#bK"/><use transform="matrix(0.05,0,0,0.05,53.900000000000006,0)" xlink:href="#bL"/></g><path fill="#333" d="M115-194c55 1 70 41 70 98S169 2 115 4C84 4 66-9 55-30l1 105H24l-1-265h31l2 30c10-21 28-34 59-34zm-8 174c40 0 45-34 45-75s-6-73-45-74c-42 0-51 32-51 76 0 43 10 73 51 73" id="bM"/><path fill="#333" d="M85-194c31 0 48 13 60 33l-1-100h32l1 261h-30c-2-10 0-23-3-31C134-8 116 4 85 4 32 4 16-35 15-94c0-66 23-100 70-100zm9 24c-40 0-46 34-46 75 0 40 6 74 45 74 42 0 51-32 51-76 0-42-9-74-50-73" id="bN"/><g id="O"><use transform="matrix(0.05,0,0,0.05,0,0)" xlink:href="#bM"/><use transform="matrix(0.05,0,0,0.05,10,0)" xlink:href="#bI"/><use transform="matrix(0.05,0,0,0.05,20,0)" xlink:href="#bC"/><use transform="matrix(0.05,0,0,0.05,29,0)" xlink:href="#bC"/><use transform="matrix(0.05,0,0,0.05,38,0)" xlink:href="#bF"/><use transform="matrix(0.05,0,0,0.05,48,0)" xlink:href="#bN"/></g><path fill="#333" d="M123 10C108 53 80 86 19 72V37c35 8 53-11 59-39L3-190h52l48 148c12-52 28-100 44-148h51" id="bO"/><path fill="#333" d="M185-48c-13 30-37 53-82 52C43 2 14-33 14-96s30-98 90-98c62 0 83 45 84 108H66c0 31 8 55 39 56 18 0 30-7 34-22zm-45-69c5-46-57-63-70-21-2 6-4 13-4 21h74" id="bP"/><path fill="#333" d="M137-138c1-29-70-34-71-4 15 46 118 7 119 86 1 83-164 76-172 9l43-7c4 19 20 25 44 25 33 8 57-30 24-41C81-84 22-81 20-136c-2-80 154-74 161-7" id="bQ"/><g id="P"><use transform="matrix(0.04320987654320988,0,0,0.04320987654320988,0,0)" xlink:href="#bO"/><use transform="matrix(0.04320987654320988,0,0,0.04320987654320988,8.641975308641976,0)" xlink:href="#bP"/><use transform="matrix(0.04320987654320988,0,0,0.04320987654320988,17.283950617283953,0)" xlink:href="#bQ"/></g><path fill="#333" d="M135-194c87-1 58 113 63 194h-50c-7-57 23-157-34-157-59 0-34 97-39 157H25l-1-190h47c2 12-1 28 3 38 12-26 28-41 61-42" id="bR"/><path fill="#333" d="M110-194c64 0 96 36 96 99 0 64-35 99-97 99-61 0-95-36-95-99 0-62 34-99 96-99zm-1 164c35 0 45-28 45-65 0-40-10-65-43-65-34 0-45 26-45 65 0 36 10 65 43 65" id="bS"/><g id="Q"><use transform="matrix(0.04320987654320988,0,0,0.04320987654320988,0,0)" xlink:href="#bR"/><use transform="matrix(0.04320987654320988,0,0,0.04320987654320988,9.462962962962964,0)" xlink:href="#bS"/></g><path fill="#333" d="M233-177c-1 41-23 64-60 70L243 0h-38l-65-103H63V0H30v-248c88 3 205-21 203 71zM63-129c60-2 137 13 137-47 0-61-80-42-137-45v92" id="bT"/><path fill="#333" d="M84 4C-5 8 30-112 23-190h32v120c0 31 7 50 39 49 72-2 45-101 50-169h31l1 190h-30c-1-10 1-25-2-33-11 22-28 36-60 37" id="bU"/><g id="R"><use transform="matrix(0.05,0,0,0.05,0,0)" xlink:href="#bT"/><use transform="matrix(0.05,0,0,0.05,12.950000000000001,0)" xlink:href="#bF"/><use transform="matrix(0.05,0,0,0.05,22.950000000000003,0)" xlink:href="#bJ"/><use transform="matrix(0.05,0,0,0.05,27.950000000000003,0)" xlink:href="#bU"/><use transform="matrix(0.05,0,0,0.05,37.95,0)" xlink:href="#bH"/><use transform="matrix(0.05,0,0,0.05,43.900000000000006,0)" xlink:href="#bL"/></g><path fill="#333" d="M63-220v92h138v28H63V0H30v-248h175v28H63" id="bV"/><g id="S"><use transform="matrix(0.05,0,0,0.05,0,0)" xlink:href="#bV"/><use transform="matrix(0.05,0,0,0.05,10.950000000000001,0)" xlink:href="#bD"/><use transform="matrix(0.05,0,0,0.05,14.9,0)" xlink:href="#bE"/><use transform="matrix(0.05,0,0,0.05,18.85,0)" xlink:href="#bF"/></g><g id="T"><use transform="matrix(0.05,0,0,0.05,0,0)" xlink:href="#bE"/><use transform="matrix(0.05,0,0,0.05,3.95,0)" xlink:href="#bK"/><use transform="matrix(0.05,0,0,0.05,13.949999999999998,0)" xlink:href="#bI"/><use transform="matrix(0.05,0,0,0.05,23.95,0)" xlink:href="#bN"/><use transform="matrix(0.05,0,0,0.05,33.95,0)" xlink:href="#bF"/><use transform="matrix(0.05,0,0,0.05,43.95,0)" xlink:href="#bN"/></g><path fill="#333" d="M179-190L93 31C79 59 56 82 12 73V49c39 6 53-20 64-50L1-190h34L92-34l54-156h33" id="bW"/><g id="U"><use transform="matrix(0.05,0,0,0.05,0,0)" xlink:href="#bC"/><use transform="matrix(0.05,0,0,0.05,9,0)" xlink:href="#bU"/><use transform="matrix(0.05,0,0,0.05,19,0)" xlink:href="#bG"/><use transform="matrix(0.05,0,0,0.05,28,0)" xlink:href="#bG"/><use transform="matrix(0.05,0,0,0.05,37,0)" xlink:href="#bF"/><use transform="matrix(0.05,0,0,0.05,47,0)" xlink:href="#bC"/><use transform="matrix(0.05,0,0,0.05,56,0)" xlink:href="#bC"/><use transform="matrix(0.05,0,0,0.05,65,0)" xlink:href="#bA"/><use transform="matrix(0.05,0,0,0.05,70,0)" xlink:href="#bU"/><use transform="matrix(0.05,0,0,0.05,80,0)" xlink:href="#bE"/><use transform="matrix(0.05,0,0,0.05,83.95,0)" xlink:href="#bE"/><use transform="matrix(0.05,0,0,0.05,87.9,0)" xlink:href="#bW"/></g><g id="V"><use transform="matrix(0.05925925925925927,0,0,0.05925925925925927,0,0)" xlink:href="#bn"/><use transform="matrix(0.05925925925925927,0,0,0.05925925925925927,15.34814814814815,0)" xlink:href="#bj"/><use transform="matrix(0.05925925925925927,0,0,0.05925925925925927,20.029629629629632,0)" xlink:href="#bc"/><use transform="matrix(0.05925925925925927,0,0,0.05925925925925927,31.881481481481487,0)" xlink:href="#bm"/><use transform="matrix(0.05925925925925927,0,0,0.05925925925925927,42.54814814814816,0)" xlink:href="#aY"/></g><path fill="#333" d="M185-189c-5-48-123-54-124 2 14 75 158 14 163 119 3 78-121 87-175 55-17-10-28-26-33-46l33-7c5 56 141 63 141-1 0-78-155-14-162-118-5-82 145-84 179-34 5 7 8 16 11 25" id="bX"/><g id="W"><use transform="matrix(0.05,0,0,0.05,0,0)" xlink:href="#bX"/><use transform="matrix(0.05,0,0,0.05,12,0)" xlink:href="#bJ"/><use transform="matrix(0.05,0,0,0.05,17,0)" xlink:href="#bK"/><use transform="matrix(0.05,0,0,0.05,27,0)" xlink:href="#bM"/></g></defs></g></svg>